<svg aria-hidden="true" style="position:absolute;width:0;height:0;overflow:hidden" xmlns="http://www.w3.org/2000/svg"><defs><symbol id="icon-logo" viewBox="0 0 123 32"><path fill="#d41442" style="fill:var(--color1, #d41442)" d="M50.869 20.027c0 .109-.303.197-.909.261s-1.215.097-1.826.097-1.001-.027-1.17-.082c-.169-.055-.253-.146-.253-.276v-9.269c0-.219.288-.435.864-.648s1.222-.32 1.938-.32c.636 0 1.053.134 1.252.402a.522.522 0 0 1 .105.298zm8.657.246c-.397.094-.802.159-1.215.194a14.268 14.268 0 0 1-2.116.022 6.721 6.721 0 0 1-.842-.149c-.347-.08-.665-.189-.954-.328s-.593-.343-.917-.611a3.66 3.66 0 0 1-.812-.954c-.506-.855-.76-1.957-.76-3.308 0-.904.142-1.704.425-2.399s.626-1.232 1.028-1.609a4.889 4.889 0 0 1 1.378-.909c.834-.377 1.674-.566 2.518-.566 1.212 0 2.081.099 2.608.298.238.09.452.228.641.418s.283.462.283.82-.087.81-.261 1.356c-.174.547-.425.82-.752.82-.099 0-.467-.08-1.103-.238s-1.068-.238-1.297-.238c-.348 0-.643.194-.887.581s-.365.939-.365 1.654.107 1.271.32 1.669.494.596.842.596c.248 0 .698-.102 1.348-.306s1.031-.306 1.14-.306c.308 0 .549.283.723.849s.261 1.023.261 1.371-.107.623-.32.827c-.214.203-.519.352-.917.447v-.001zm9.866.112h-6.319c-.487 0-.814-.035-.984-.105s-.253-.178-.253-.328v-9.433c0-.258.117-.442.35-.551s.653-.164 1.259-.164h5.991c.209 0 .313.345.313 1.036s-.045 1.217-.134 1.58c-.09.363-.209.544-.358.544-.646 0-1.734-.065-3.264-.194v.998c1.471-.06 2.429-.09 2.876-.09.268 0 .402.313.402.939s-.052 1.1-.156 1.423c-.105.323-.246.484-.424.484l-2.697-.06v.954c1.728-.129 2.921-.193 3.576-.193.209 0 .313.347.313 1.043s-.045 1.222-.134 1.58c-.09.358-.209.536-.358.536h-.001zm9-.112c-.397.094-.802.159-1.215.194a14.268 14.268 0 0 1-2.116.022 6.721 6.721 0 0 1-.842-.149c-.347-.08-.665-.189-.954-.328s-.593-.343-.917-.611a3.66 3.66 0 0 1-.812-.954c-.506-.855-.76-1.957-.76-3.308 0-.904.141-1.704.424-2.399s.626-1.232 1.028-1.609a4.889 4.889 0 0 1 1.378-.909c.834-.377 1.674-.566 2.518-.566 1.212 0 2.081.099 2.608.298.238.09.452.228.641.418s.283.462.283.82-.087.81-.261 1.356c-.174.547-.424.82-.752.82-.099 0-.467-.08-1.103-.238s-1.068-.238-1.297-.238c-.348 0-.643.194-.887.581s-.365.939-.365 1.654.107 1.271.32 1.669.494.596.842.596c.248 0 .698-.102 1.348-.306s1.031-.306 1.14-.306c.308 0 .549.283.723.849s.261 1.023.261 1.371-.107.623-.32.827c-.214.203-.519.352-.917.447v-.001zm6.482-.32c0 .129-.303.234-.909.313-.603.078-1.215.119-1.825.119h-.002c-.611 0-1.003-.035-1.177-.105s-.261-.178-.261-.328V10.37c0-.258.326-.442.976-.551s1.473-.164 2.467-.164 1.637.002 1.93.007c.293.005.639.023 1.035.052s.713.08.946.149c.234.069.492.159.775.268s.504.251.663.425c.159.174.313.38.462.619.268.427.402 1.035.402 1.826s-.131 1.455-.395 1.997-.613.951-1.051 1.23c1.143 1.798 1.714 2.941 1.714 3.427s-.979.73-2.936.73c-.566 0-.959-.025-1.177-.074s-.358-.159-.418-.328l-.969-3.07-.253-.015v3.055l.002-.001h.001zm0-5.349h.388c.576 0 .864-.447.864-1.341 0-.457-.077-.78-.231-.969s-.33-.283-.529-.283h-.492zm14.053 5.782h-6.319c-.487 0-.814-.035-.984-.105s-.253-.178-.253-.328V10.52c0-.258.117-.442.35-.551s.653-.164 1.259-.164h5.991c.209 0 .313.345.313 1.036s-.045 1.217-.134 1.58c-.09.363-.209.544-.358.544-.646 0-1.734-.065-3.264-.194v.998c1.471-.06 2.429-.09 2.876-.09.268 0 .402.313.402.939s-.052 1.1-.156 1.423c-.105.323-.246.484-.424.484l-2.697-.06v.954c1.728-.129 2.921-.193 3.576-.193.209 0 .313.347.313 1.043s-.045 1.222-.134 1.58c-.09.358-.209.536-.358.536h-.001zm5.647-.761c-.02.288-.172.487-.455.596s-.792.164-1.527.164c-.735 0-1.348-.067-1.84-.201s-.738-.306-.738-.514c0-.238.442-1.761 1.326-4.567s1.391-4.424 1.52-4.851c.049-.129.449-.236 1.2-.32s1.555-.127 2.414-.127 1.334.149 1.423.447c1.877 6.239 2.816 9.408 2.816 9.507s-.06.199-.178.298c-.278.219-.83.328-1.654.328-1.758 0-2.658-.209-2.697-.626l-.105-.969h-1.431l-.074.834h-.001zm1.193-3.665-.223-2.682h-.328l-.253 2.683zm7.987 4.426h-1.08c-.472 0-.792-.035-.961-.105s-.253-.178-.253-.328V10.55c0-.228.306-.41.917-.544s1.264-.201 1.959-.201c.696 0 1.192.09 1.49.268s.472.368.521.566l1.014 3.934h.134l.954-3.755c.069-.268.394-.504.976-.708s1.219-.306 1.915-.306c.695 0 1.209.055 1.543.164s.499.248.499.417v9.567c0 .129-.283.234-.849.313s-1.257.119-2.072.119-1.222-.144-1.222-.432c0-.785.085-2.18.253-4.188h-.134l-.775 3.889c-.03.149-.152.258-.365.328s-.534.105-.961.105c-.427 0-.688-.03-.782-.09s-.156-.174-.186-.343l-.805-3.889h-.134c.178 2.047.268 3.442.268 4.188 0 .258-.621.402-1.863.432v.001zM16 .6C24.505.6 31.4 7.495 31.4 16S24.505 31.4 16 31.4.6 24.505.6 16 7.495.6 16 .6z"/><path fill="#d41442" style="fill:var(--color1, #d41442)" d="M16 .6C24.505.6 31.4 7.495 31.4 16S24.505 31.4 16 31.4.6 24.505.6 16 7.495.6 16 .6z"/><path fill="#d41442" style="fill:var(--color1, #d41442)" d="M21.279 20.529a.143.143 0 0 0-.015.011zM7.375 13.361a8.8 8.8 0 0 1 17.6 0z"/><path fill="#d41442" style="fill:var(--color1, #d41442)" d="M22.882 7.661a8.786 8.786 0 0 1-7.056 3.54A8.781 8.781 0 0 1 9.12 8.1zm2.051 4.832c.028.17.043.343.043.516v1.773zm.043 6.133v5.646a3.178 3.178 0 0 1-3.168 3.168H10.544a3.178 3.178 0 0 1-3.168-3.168V18.64zM7.375 14.768v-1.76c0-.175.015-.347.043-.516z"/><path fill="#d41442" style="fill:var(--color1, #d41442)" d="M17.393 18.64H7.247a1.812 1.812 0 0 1-1.807-1.807v-.258c0-.994.813-1.807 1.807-1.807h17.507c.994 0 1.807.813 1.807 1.807v.258c0 .994-.813 1.807-1.807 1.807h-3.489zm3.872 0v2.681c0 .994-.813 1.807-1.807 1.807H19.2a1.812 1.812 0 0 1-1.807-1.807V18.64zm.015 0v1.889z"/><path fill="#d41442" style="fill:var(--color1, #d41442)" d="M21.265 18.635h.006v.005h-.006zm-3.872 0h.006v.005h-.006zM20.576 27.44v3.523zm-8.801 3.502v-3.501z"/><path fill="#d41442" style="fill:var(--color1, #d41442)" d="M9.714 30.649c-1.896-.81-3.482-1.903-5.036-3.473C2.159 24.634.655 21.555.187 17.989-.49 12.823 1.52 7.503 5.449 4.061c7.87-6.895 20.014-4.571 24.756 4.737a15.75 15.75 0 0 1 0 14.398c-.8 1.569-1.647 2.738-2.888 3.984-1.128 1.133-2.05 1.859-3.284 2.585-.715.421-2.37 1.201-2.544 1.199-.036 0-.069-.611-.074-1.356l-.008-1.356.476-.001c1.441-.003 2.762-.827 3.48-2.171l.364-.682.028-3.064c.015-1.685.064-3.064.107-3.064.169 0 1.055-.888 1.25-1.252.173-.323.206-.535.206-1.32 0-1.124-.141-1.456-.919-2.167l-.509-.465-.102-1.21c-.132-1.562-.372-2.466-.991-3.735-2.886-5.912-10.745-7.227-15.398-2.577-1.848 1.846-2.697 3.888-2.919 7.017-.019.274-.107.387-.57.739-.643.488-1.05 1.015-1.194 1.548-.152.563-.06 1.709.174 2.165.232.451.886 1.075 1.31 1.25.29.12.305.15.315.652.111 5.372.117 5.457.371 5.999.594 1.262 1.89 2.182 3.266 2.317l.702.069.017 1.38c.012 1.007-.013 1.379-.094 1.378-.061-.001-.538-.185-1.061-.408z"/><path fill="#d41442" style="fill:var(--color1, #d41442)" d="M13.889 10.063c-1.341-.378-2.288-.88-3.263-1.731-.383-.334-.379-.342.635-1.15 1.432-1.14 2.999-1.67 4.936-1.669 1.862.001 3.619.602 4.98 1.703l.596.482-.362.317c-1.127.986-2.182 1.596-3.45 1.998-.512.162-.941.215-1.965.241-1.163.03-1.399.009-2.108-.191z"/><path fill="#d41442" style="fill:var(--color1, #d41442)" d="M8.236 13.167c.034-.373.124-.994.201-1.38.143-.721.634-2.109.776-2.198.044-.027.389.185.766.472.863.656 2.318 1.373 3.352 1.652.698.188 1.007.214 2.526.21 1.482-.004 1.838-.034 2.479-.209 1.085-.297 2.667-1.117 3.641-1.887.459-.363.863-.66.897-.66.084 0 .693 1.333.875 1.918.195.624.338 1.562.339 2.222l.001.538H8.174zM18.897 22.177a1.287 1.287 0 0 1-.374-.284c-.172-.191-.189-.362-.216-2.163l-.029-1.955-4.509-.005c-5.537-.006-6.92-.073-7.194-.347-.278-.278-.339-1.028-.106-1.315.151-.187.304-.227 1.156-.305.565-.052 4.512-.079 9.304-.065l8.322.025.222.327c.29.427.245 1.033-.103 1.38l-.235.235-4.77.095-.035 1.928c-.023 1.271-.073 1.996-.148 2.129-.186.331-.853.496-1.286.319z"/><path fill="#d41442" style="fill:var(--color1, #d41442)" d="M11.6 26.485c-2.021-.066-2.189-.106-2.679-.634-.517-.557-.577-.797-.672-2.698-.049-.978-.058-2.188-.021-2.69l.069-.912h8.196l.059 1.099c.033.605.079 1.229.104 1.387.071.46.562 1.14 1.043 1.446.566.359.955.464 1.72.465 1.062.001 2.015-.604 2.433-1.543.137-.309.36-2.007.364-2.783.001-.145.108-.164.942-.164h.941l-.057 5.286-.281.561c-.296.593-.656.904-1.252 1.081-.405.121-8.118.19-10.91.099z"/><path fill="#d41442" style="fill:var(--color1, #d41442)" d="M9.623 30.607c-1.875-.811-3.392-1.862-4.946-3.429-1.249-1.259-2.094-2.424-2.888-3.982C-1.894 15.971.436 7.216 7.25 2.675 10.075.793 13.527-.109 17.087.105c4.922.297 9.553 3.012 12.264 7.191a15.904 15.904 0 0 1 0 17.4 16.18 16.18 0 0 1-5.206 5.011c-.718.434-2.441 1.256-2.629 1.256-.058 0-.097-.52-.102-1.356l-.008-1.356.476-.001c1.441-.003 2.762-.827 3.48-2.171l.364-.682.028-3.064c.015-1.685.064-3.064.107-3.064.169 0 1.055-.888 1.25-1.252.173-.323.206-.535.206-1.32 0-1.124-.141-1.456-.919-2.167l-.509-.465-.102-1.21c-.132-1.562-.372-2.466-.991-3.735C21.91 3.208 14.051 1.893 9.398 6.543 7.55 8.389 6.701 10.431 6.479 13.56c-.019.274-.107.387-.57.739-.643.488-1.05 1.015-1.194 1.548-.152.563-.06 1.709.174 2.165.232.451.886 1.075 1.31 1.25.29.12.305.15.315.652.111 5.372.117 5.457.371 5.999.594 1.262 1.89 2.182 3.266 2.317l.702.069.017 1.38c.012 1.006-.013 1.38-.094 1.379-.061 0-.579-.203-1.152-.451z"/><path fill="#d41442" style="fill:var(--color1, #d41442)" d="M9.793 30.69c-1.867-.777-3.488-1.886-5.068-3.467-1.338-1.338-2.155-2.477-2.988-4.163-2.281-4.618-2.266-9.587.042-14.22C4.282 3.816 9.321.457 14.876.109c2.706-.169 5.129.247 7.549 1.296 5.739 2.489 9.533 8.321 9.522 14.635-.011 6.232-3.721 11.94-9.437 14.518-.494.223-.94.405-.992.405-.058 0-.097-.52-.102-1.356l-.008-1.356.476-.001c1.441-.003 2.762-.827 3.48-2.171l.364-.682.028-3.064c.015-1.685.064-3.064.107-3.064.169 0 1.055-.888 1.25-1.252.173-.323.206-.535.206-1.32 0-1.124-.141-1.456-.919-2.167l-.509-.465-.102-1.21c-.132-1.562-.372-2.466-.991-3.735C21.912 3.208 14.053 1.893 9.4 6.543c-1.848 1.846-2.697 3.888-2.919 7.017-.019.274-.107.387-.57.739-.643.488-1.05 1.015-1.194 1.548-.152.563-.06 1.709.174 2.165.232.451.886 1.075 1.31 1.25.29.12.305.15.315.652.111 5.372.117 5.457.371 5.999.594 1.262 1.89 2.182 3.266 2.317l.702.069.026 1.38c.02 1.072-.001 1.379-.094 1.377-.066-.002-.512-.166-.992-.366z"/><path fill="#d41442" style="fill:var(--color1, #d41442)" d="M14.734 31.891c-.992-.079-2.885-.432-2.409-.449l.257-.009v-3.058l1.473-.061c.81-.034 2.41-.061 3.555-.061h2.081v2.983l.444.029c.433.028.423.034-.444.24-1.6.38-3.338.516-4.958.387z"/><path fill="#fff" style="fill:var(--color2, #fff)" d="M11.347 31.084c-.229-.134-.275-.393-.275-1.566v-1.406l-.667-.002c-.806-.002-2.079-.574-2.661-1.196-.926-.99-1.062-1.591-1.066-4.721l-.003-2.856-.61-.343c-1.681-.945-1.723-3.531-.073-4.531.662-.401.672-.422.677-1.285.007-1.178.512-3.087 1.132-4.276.72-1.379 2.723-3.334 4.096-3.997 1.496-.722 2.646-.988 4.278-.988 2.701 0 4.655.815 6.604 2.756.788.784 1.455 1.624 1.771 2.23.638 1.223 1.127 3.111 1.128 4.354 0 .883.036.98.461 1.265 1.424.954 1.478 3.17.104 4.265l-.566.452-.003 2.905c-.004 3.184-.136 3.777-1.066 4.771-.581.621-1.855 1.194-2.661 1.196l-.667.002v1.329c0 1.448-.126 1.655-1.011 1.655h-.403v-2.984h-7.381v3.141l-.432-.005c-.238-.002-.556-.077-.707-.165zm11.651-4.694c.415-.212.71-.524.936-.992.297-.613.331-.959.331-3.382v-2.699h-2.172l-.1 1.217c-.145 1.767-.202 1.935-.877 2.578-.774.737-1.717.923-2.724.539-1.281-.489-1.666-1.203-1.666-3.088v-1.246H8.088l.003 2.788c.002 2.595.027 2.83.353 3.4.688 1.201.646 1.194 7.697 1.194 5.906 0 6.285-.016 6.857-.309zm-3.081-4.112c.189-.099.395-.258.458-.353s.116-1.039.118-2.097l.002-1.924h2.356c2.146 0 2.384-.028 2.67-.314.379-.379.413-1.202.07-1.693l-.244-.349h-9.284c-10.481 0-9.859-.075-9.859 1.193 0 1.182-.104 1.162 6.317 1.162h5.619v1.952c0 1.921.006 1.957.414 2.277.467.367.861.409 1.363.145zm4.345-9.047c-.001-.41-.107-1.189-.234-1.731-.236-1-.929-2.549-1.141-2.549-.064 0-.504.321-.979.713-3.562 2.946-8.398 2.962-12.124.042l-.582-.456-.322.631c-.413.809-.786 2.395-.789 3.35l-.002.746h16.176l-.002-.746zm-7.065-2.87c1.301-.203 3.058-1.057 4.032-1.961l.759-.704-.628-.544c-1.357-1.175-3.173-1.809-5.183-1.809-2.11 0-3.915.665-5.365 1.977l-.76.687.683.625c.828.757 2.087 1.374 3.38 1.655 1.198.261 1.788.274 3.082.073z"/><path fill="#fff" style="fill:var(--color2, #fff)" d="M11.291 31.127c-.283-.139-.358-.2-.32-.26.027-.043.05-.655.05-1.361l.001-1.283-.597-.032c-1.019-.055-1.809-.383-2.545-1.057a4.053 4.053 0 0 1-1.052-1.595l-.164-.471-.033-5.694-.426-.207a2.633 2.633 0 0 1-1.273-1.264c-.188-.396-.206-.479-.229-1.037-.019-.465-.002-.69.072-.965.182-.674.709-1.303 1.373-1.638.174-.088.34-.204.367-.258s.066-.426.085-.827c.131-2.713 1.098-4.883 2.992-6.718 3.825-3.705 9.98-3.509 13.614.435 1.606 1.743 2.53 4.08 2.53 6.397 0 .349.023.697.052.772s.215.259.414.409c.645.486.985 1.049 1.091 1.808.157 1.131-.292 2.141-1.219 2.741l-.331.214-.036 5.776-.15.444a3.931 3.931 0 0 1-1.337 1.894c-.705.535-1.634.854-2.481.854h-.393l.012 2.638-.379.182c-.334.16-.425.18-.767.166l-.389-.015-.03-2.971h-7.277l.005 1.347c.003.741.004 1.44.003 1.555l-.003.208-.43-.004c-.369-.004-.483-.03-.8-.186zm11.014-4.576c.706-.121 1.261-.53 1.566-1.153.286-.585.308-.832.309-3.535l.001-2.485h-2.04l-.041.458c-.023.252-.06.82-.083 1.263-.047.901-.13 1.198-.481 1.707-.245.356-.742.74-1.174.908-.476.185-1.377.213-1.885.059-.816-.249-1.4-.803-1.702-1.617-.097-.263-.118-.483-.144-1.528l-.03-1.222h-8.44l-.015 2.082c-.019 2.603.029 3.317.259 3.807.188.401.601.874.897 1.024.288.147.799.227 1.775.277 1.2.061 10.833.022 11.228-.046zm-2.454-4.305c.311-.152.452-.298.505-.521.027-.115.066-1.039.086-2.055l.037-1.846 2.17-.001c1.194-.001 2.268-.024 2.388-.052.48-.111.721-.465.721-1.058 0-.442-.175-.847-.433-1.004-.168-.102-.412-.105-8.169-.104-9.454.001-10.352.031-10.732.359-.141.121-.152.163-.167.648-.028.868.146 1.048 1.111 1.154.341.037 2.426.059 5.673.059h5.134l.018 1.902c.016 1.654.03 1.924.112 2.072.094.171.399.413.656.521.192.08.655.042.888-.072zm4.331-8.942c0-.767-.15-1.698-.391-2.423-.191-.576-.59-1.459-.778-1.723-.118-.166-.122-.167-.267-.072-.081.053-.382.294-.669.537-1.856 1.567-3.893 2.32-6.278 2.319-2.269-.001-4.304-.739-6.111-2.217-.229-.187-.435-.341-.457-.341-.066 0-.404.709-.593 1.244-.251.712-.448 1.755-.488 2.59l-.034.719H24.18zM17.213 10.3c1.465-.261 3.041-1.069 4.22-2.161l.444-.411-.194-.204c-.528-.554-1.609-1.245-2.462-1.576-2.511-.972-5.547-.645-7.627.822-.474.335-1.405 1.158-1.405 1.244 0 .103.82.807 1.319 1.133.98.639 2.259 1.09 3.567 1.256.369.047 1.639-.014 2.138-.103z"/><path fill="#fff" style="fill:var(--color2, #fff)" d="m11.294 31.143-.367-.167.048-.267c.027-.147.042-.763.033-1.371l-.015-1.104-.583-.037c-1.082-.069-1.894-.431-2.642-1.18-.485-.485-.753-.912-.989-1.577l-.144-.406v-2.181c0-1.2-.016-2.479-.036-2.843l-.036-.662-.368-.175a2.643 2.643 0 0 1-1.389-1.56c-.145-.431-.159-1.288-.027-1.738.185-.635.634-1.192 1.259-1.563.208-.124.412-.272.452-.329.042-.06.077-.285.083-.534.036-1.504.421-3.125 1.031-4.34.777-1.547 2.107-3.005 3.542-3.882 2.769-1.693 6.152-1.894 9.065-.538 2.585 1.203 4.537 3.567 5.244 6.35.175.69.23 1.094.278 2.064.025.504.062.955.081 1.002s.197.207.393.355c.612.463.916.941 1.069 1.685.073.355.078.512.027.919-.106.851-.503 1.483-1.247 1.99l-.319.217v2.78c0 3.145.005 3.102-.427 3.982-.2.407-.346.612-.677.949-.753.767-1.602 1.149-2.688 1.209l-.599.033.018 2.621-.354.177c-.303.151-.415.177-.784.18l-.43.004v-2.999l-7.246.029-.01 1.333c-.005.733-.012 1.426-.014 1.541l-.004.208-.43-.004c-.357-.002-.493-.032-.797-.17zm10.792-4.6c1.106-.096 1.79-.743 2.012-1.903.062-.323.076-.934.068-2.823l-.011-2.411-.968-.015c-.532-.009-.987.004-1.011.028s-.071.518-.103 1.098-.087 1.192-.12 1.36c-.148.751-.679 1.412-1.419 1.764-.404.193-.472.207-1.055.226-.744.024-1.189-.086-1.712-.424a2.156 2.156 0 0 1-.773-.81c-.298-.509-.325-.653-.358-1.951l-.032-1.222-8.4-.029-.042.93c-.051 1.139.006 3.92.09 4.374.086.464.307.887.644 1.233.321.33.505.423 1.023.522.68.129 10.78.171 12.168.05zM19.9 22.192c.446-.222.454-.248.508-1.654.026-.684.049-1.572.051-1.974l.002-.73 2.29-.019c2.191-.019 2.3-.024 2.51-.135.628-.329.647-1.546.03-1.956l-.194-.129-8.524.024c-8.839.025-9.486.042-9.972.257-.205.091-.248.14-.304.346-.076.282-.042.895.062 1.119.094.2.278.294.723.368.56.093 1.266.105 6.339.11l4.761.004.003 1.374c.002.756.022 1.643.045 1.97.037.523.058.614.177.741.443.474.922.565 1.49.283zm4.263-9.046c-.055-1.21-.269-2.12-.744-3.163-.281-.617-.465-.932-.545-.932-.075 0-.195.089-.861.641-1.996 1.651-4.283 2.397-6.864 2.237-1.984-.123-3.858-.88-5.498-2.22-.227-.185-.42-.328-.43-.317s-.118.22-.24.464c-.454.909-.741 2.108-.82 3.429l-.039.652H24.2zm-7.064-2.85c1.006-.15 2.28-.665 3.246-1.312.516-.346.651-.456 1.137-.925l.382-.369-.326-.295c-.664-.601-1.706-1.223-2.567-1.532-.542-.195-1.623-.404-2.319-.45-1.537-.1-3.286.31-4.595 1.076-.448.262-1.285.929-1.662 1.323l-.211.221.402.373a7.82 7.82 0 0 0 1.712 1.171c.78.39 2.148.766 2.973.818.434.027 1.285-.02 1.83-.101z"/><path fill="#fff" style="fill:var(--color2, #fff)" d="m11.336 31.173-.358-.161-.032-2.806-.726-.066c-1.371-.124-2.616-.968-3.204-2.171-.328-.671-.406-1.525-.415-4.56l-.006-2.026-.503-.284c-.92-.519-1.368-1.306-1.368-2.403 0-1.02.374-1.717 1.233-2.301.597-.406.601-.414.678-1.579.103-1.56.671-3.326 1.455-4.526.531-.813 1.595-1.963 2.364-2.555 1.151-.886 2.757-1.561 4.302-1.809.976-.156 2.79-.068 3.813.186 2.629.651 5.068 2.703 6.273 5.279.494 1.055.738 2.046.862 3.503l.107 1.247.451.377c.551.462.872.994.987 1.639.185 1.034-.187 2.062-.973 2.692l-.469.376-.062 2.921c-.055 2.555-.085 2.986-.245 3.44-.516 1.469-2.069 2.573-3.62 2.573h-.505v2.685l-.351.151c-.363.156-.544.187-.982.169l-.257-.011v-3.006l-7.203.045v3.148l-.444-.002a2.358 2.358 0 0 1-.803-.164zm11.215-4.709c.555-.14 1.241-.781 1.439-1.345.097-.277.141-1.072.168-3.064l.037-2.69h-2.042l-.11 1.318c-.123 1.471-.239 1.839-.742 2.365-.525.548-1.147.806-1.937.802-1.011-.005-1.73-.334-2.209-1.011-.364-.514-.438-.829-.511-2.16l-.066-1.221-1.507-.012c-.829-.006-2.717-.025-4.197-.041l-2.69-.029.001 2.59c0 1.474.042 2.738.096 2.934.149.536.657 1.212 1.069 1.423.309.158.629.2 1.918.252 2.553.103 10.753.021 11.282-.112zm-2.497-4.362c.309-.23.365-.631.378-2.699l.009-1.505 2.302-.064c1.728-.048 2.368-.098 2.565-.2.502-.26.588-1.163.167-1.755l-.189-.266-9.041.036c-8.941.036-9.583.059-9.871.346-.059.059-.102.38-.099.723.011.998.051 1.012 3.174 1.1.978.027 3.342.05 5.255.05l3.478.001.061 3.85.361.331c.328.301.4.327.782.284.232-.026.532-.13.668-.231zm4.098-9.128a8.818 8.818 0 0 0-.296-1.781c-.262-.904-.834-2.118-.998-2.118-.058 0-.384.225-.724.5-1.273 1.028-2.329 1.605-3.627 1.981-3.017.874-6.147.245-8.711-1.751l-.588-.457-.275.589c-.401.857-.66 1.952-.721 3.044l-.053.959h16.052zm-5.92-2.966a9.516 9.516 0 0 0 3.058-1.763l.568-.502-.264-.279c-.376-.398-1.239-.969-2.035-1.348-1.947-.925-4.811-.909-6.801.038-1.165.554-2.587 1.659-2.483 1.93.095.248 1.221 1.074 1.987 1.457a10.35 10.35 0 0 0 1.637.612c.78.207 1.03.23 2.146.2 1.131-.03 1.359-.066 2.188-.345z"/><path fill="#fff" style="fill:var(--color2, #fff)" d="m11.333 31.172-.36-.162.014-1.376c.016-1.573.115-1.418-.969-1.511-1.163-.1-2.516-1.077-3.023-2.183-.314-.685-.384-1.467-.393-4.344l-.007-2.213-.503-.284c-.92-.519-1.368-1.306-1.368-2.403 0-1.014.383-1.726 1.249-2.322.574-.396.57-.384.666-1.654.114-1.504.691-3.265 1.451-4.43.531-.813 1.595-1.963 2.364-2.555 1.151-.886 2.757-1.561 4.302-1.809.975-.156 2.791-.068 3.803.185 2.662.665 5.07 2.688 6.283 5.28.559 1.194.927 2.891.93 4.28.001.408.03.458.51.868.696.594 1.006 1.238 1.006 2.086 0 1.025-.368 1.788-1.126 2.332l-.359.258-.056 2.916c-.05 2.58-.078 2.977-.242 3.445-.52 1.479-2.068 2.583-3.623 2.583h-.505v2.685l-.351.151c-.363.156-.544.187-.982.169l-.257-.011v-3.011l-2.643.02c-1.454.011-3.074.042-3.602.069l-.959.05v3.059l-.444-.002a2.374 2.374 0 0 1-.805-.164zm10.519-4.64c1.103-.059 1.655-.412 2.064-1.322.198-.44.212-.617.25-3.159l.04-2.693-2.034.053-.113 1.251c-.138 1.518-.223 1.795-.718 2.334-.531.578-1.158.857-1.929.858-.753 0-1.172-.112-1.673-.449-.792-.532-1.009-1.075-1.097-2.735l-.064-1.211-3.143-.007c-1.729-.004-3.62-.022-4.203-.041l-1.06-.034.031 2.777c.029 2.63.041 2.797.232 3.151.11.206.31.492.444.636.46.495.771.561 2.91.62 2.049.056 8.835.037 10.064-.029zm-2.024-4.306c.505-.211.546-.379.594-2.452l.043-1.883 2.256-.063c1.241-.035 2.363-.104 2.493-.155.519-.2.684-.939.354-1.583l-.216-.421h-8.747c-4.811 0-9.031.035-9.379.078s-.695.14-.772.217c-.162.162-.194 1.159-.047 1.434.176.329.894.379 6.416.44l5.356.06.032 1.895c.031 1.872.034 1.898.265 2.147.399.429.804.515 1.352.286zm4.323-9.205a10.88 10.88 0 0 0-.245-1.64c-.195-.761-.87-2.306-1.008-2.306-.045 0-.5.318-1.012.707-1.163.883-2.516 1.563-3.737 1.877-.763.197-1.169.243-2.198.251-2.274.018-4.157-.599-5.946-1.948l-.802-.605-.269.593c-.389.857-.665 2.032-.724 3.078l-.051.912h16.052zm-6.376-2.862c.851-.227 2.389-1.023 3.153-1.632 1.015-.808.999-.767.474-1.231-1.46-1.29-3.507-1.953-5.686-1.842-2.029.103-3.89.904-5.145 2.216l-.374.391.374.332c.94.834 2.171 1.471 3.49 1.806.876.222 2.808.202 3.714-.04z"/><path fill="#fff" style="fill:var(--color2, #fff)" d="m11.333 31.172-.36-.162.028-2.748-.308-.047c-.17-.026-.518-.071-.774-.1-1.121-.127-2.432-1.102-2.922-2.173-.317-.693-.388-1.459-.395-4.296l-.006-2.255-.535-.317c-.616-.365-1.098-.948-1.25-1.514-.059-.216-.088-.714-.066-1.106.054-.936.339-1.438 1.156-2.03.534-.387.601-.472.639-.81.264-2.315.334-2.651.808-3.881.535-1.387 1.843-3.051 3.217-4.093.72-.546 2.206-1.251 3.234-1.536.702-.194.988-.22 2.432-.214 1.871.008 2.516.136 3.873.772a9.859 9.859 0 0 1 5.669 8.924c0 .424.029.476.558.989.686.665.951 1.221.959 2.012.011 1.045-.366 1.838-1.131 2.382l-.358.255-.051 2.9c-.057 3.252-.106 3.537-.77 4.441-.681.928-1.953 1.593-3.046 1.593h-.557v2.723l-.304.126c-.316.131-.591.173-1.029.155l-.257-.01v-2.994h-.92c-.506 0-2.127.028-3.602.062l-2.681.062v3.057l-.444-.002a2.374 2.374 0 0 1-.805-.164zm11.059-4.691c.613-.118 1.136-.535 1.455-1.159l.274-.537.087-5.428-2.037.053-.113 1.263c-.136 1.519-.273 1.913-.853 2.455-.622.582-1.141.761-2.049.707-.833-.05-1.332-.262-1.838-.783-.459-.472-.611-1.007-.681-2.395l-.061-1.196-8.405-.05.031 2.713c.028 2.519.045 2.743.226 3.134.246.53.866 1.096 1.272 1.162.17.028.415.066.543.086.481.074 11.757.05 12.148-.026zm-2.374-4.364c.121-.079.246-.214.279-.299s.085-1.009.116-2.053l.057-1.897.804-.009a116.6 116.6 0 0 0 2.363-.07c1.459-.057 1.574-.075 1.79-.278.127-.119.257-.346.288-.504.073-.367-.088-.967-.322-1.202-.177-.178-.368-.182-7.456-.176-4 .004-8.142.037-9.203.075-2.382.085-2.421.101-2.419.973.003 1.055-.098 1.026 3.881 1.108 1.801.037 4.332.071 5.626.075l2.351.007.036 1.906c.039 2.062.041 2.07.594 2.417.319.2.845.168 1.215-.074zm4.13-9.043c-.071-.984-.252-1.847-.544-2.596-.285-.729-.628-1.403-.714-1.403-.04 0-.492.316-1.004.703-1.407 1.063-2.647 1.661-4.065 1.96-2.704.57-5.494-.05-7.75-1.723-.42-.312-.803-.567-.851-.567-.111 0-.621 1.321-.804 2.081-.077.322-.168.996-.2 1.497l-.06.912h16.053zm-6.373-2.929c1.15-.309 2.6-1.109 3.595-1.983.285-.25.396-.411.356-.516-.098-.255-1.101-.985-1.892-1.378-2.416-1.199-5.518-1.089-7.811.275-.609.362-1.777 1.352-1.777 1.505 0 .158 1.178 1.033 1.871 1.389.722.371 1.617.696 2.345.851.588.125 2.648.035 3.315-.144z"/><path fill="#fff" style="fill:var(--color2, #fff)" d="m11.333 31.172-.36-.162.028-2.741-.355-.051a86.368 86.368 0 0 0-.782-.106c-1.085-.139-2.388-1.125-2.865-2.167-.321-.702-.391-1.452-.398-4.253l-.005-2.302-.535-.317c-.616-.365-1.098-.948-1.25-1.514-.059-.216-.088-.714-.066-1.106.047-.827.327-1.408.885-1.835.896-.687.873-.648.97-1.615.28-2.784 1.007-4.436 2.749-6.253.924-.963 1.637-1.482 2.78-2.022 1.49-.704 2.192-.848 4.102-.838 1.883.009 2.578.149 3.909.786 1.085.519 1.724.961 2.607 1.807a9.59 9.59 0 0 1 2.512 3.944c.267.796.512 2.261.512 3.071.001.535.006.546.515 1.019.726.676 1.014 1.301 1.008 2.191-.006.91-.306 1.548-1.016 2.161l-.507.438-.004 2.11c-.006 2.93-.095 3.894-.425 4.568-.591 1.209-1.895 2.076-3.243 2.154l-.725.042v2.698l-.304.126c-.316.131-.591.173-1.029.155l-.257-.01v-3.023l-2.175.061c-1.196.034-2.817.062-3.602.062H12.58v3.087l-.444-.002a2.374 2.374 0 0 1-.805-.164zm10.932-4.697c.755-.124 1.233-.471 1.58-1.148l.272-.532.092-5.436-2.038.053-.113 1.263c-.136 1.519-.273 1.913-.853 2.455-.622.582-1.141.761-2.049.707-.833-.05-1.332-.262-1.838-.783-.463-.476-.617-1.017-.684-2.402l-.058-1.193h-8.41l.033 2.69c.032 2.583.042 2.707.249 3.128.318.648.838 1.078 1.39 1.151.248.033.515.073.592.09.369.079 11.334.041 11.834-.041zm-2.474-4.27c.239-.096.417-.241.471-.384.048-.127.115-1.062.147-2.078l.06-1.847 1.178-.06a66.596 66.596 0 0 1 2.207-.07c1.224-.012 1.421-.057 1.667-.386.361-.483.137-1.571-.35-1.702-.283-.076-13.354-.054-16.063.028-2.802.084-2.795.081-2.793.972.002.674.043.764.421.919.28.115 4.907.244 9.411.263l2.022.008.044 1.913c.048 2.062.051 2.076.589 2.405.346.211.499.214.988.019zm4.351-9.165a9.105 9.105 0 0 0-.705-2.953c-.491-1.164-.404-1.145-1.518-.322-.53.392-1.322.898-1.759 1.124-3.251 1.681-7.096 1.345-10.1-.882-.896-.665-.874-.67-1.262.317-.327.832-.505 1.676-.58 2.75l-.06.865h16.051zm-6.528-2.858c1.164-.289 2.726-1.117 3.661-1.941.357-.314.489-.492.448-.6-.087-.226-1.234-1.043-1.984-1.413-1.109-.547-2.046-.743-3.555-.746-1.864-.003-3.115.352-4.46 1.264-.618.419-1.48 1.179-1.48 1.304 0 .128 1.149.991 1.784 1.34a8.468 8.468 0 0 0 2.333.858c.694.15 2.533.113 3.254-.066z"/><path fill="#fff" style="fill:var(--color2, #fff)" d="m11.333 31.172-.36-.162.028-2.744-.542-.062c-1.226-.141-1.965-.474-2.714-1.223-.616-.616-.961-1.338-1.064-2.225-.043-.367-.079-1.726-.081-3.02l-.004-2.353-.5-.282c-.576-.325-.949-.731-1.209-1.317-.149-.336-.176-.562-.144-1.223.045-.933.3-1.491.888-1.942.899-.69.866-.629.976-1.756.254-2.584 1.055-4.369 2.742-6.114.935-.967 1.648-1.485 2.795-2.028 1.497-.709 2.086-.83 4.042-.827 1.435.002 1.794.032 2.432.207.854.233 2.052.782 2.834 1.299.719.475 1.883 1.597 2.448 2.36 1.042 1.405 1.734 3.374 1.843 5.241l.058.985.552.58c.725.762.951 1.277.945 2.157-.006.894-.31 1.537-1.015 2.147l-.507.438-.003 2.204c-.004 3.771-.153 4.475-1.161 5.484-.693.694-1.556 1.09-2.491 1.144l-.742.043v2.698l-.304.126c-.316.131-.591.173-1.029.155l-.257-.01v-3.023l-1.754.061c-.965.034-2.585.061-3.602.062h-1.848v3.087l-.444-.002a2.374 2.374 0 0 1-.805-.164zm11.449-4.801c.452-.206.927-.701 1.145-1.194.162-.366.188-.709.233-3.115l.051-2.704-2.039.053-.11 1.279c-.128 1.494-.279 1.913-.888 2.472-.602.552-1.125.727-2.022.675-1.183-.069-1.999-.631-2.337-1.61-.073-.211-.156-.92-.185-1.576l-.053-1.193H8.165l.04 2.69c.043 2.908.063 3.031.586 3.652.338.401.726.595 1.36.68.283.038 3.167.063 6.408.055 5.194-.012 5.933-.032 6.224-.164zm-3.011-4.158c.202-.081.409-.246.467-.372.057-.125.132-1.069.168-2.1l.064-1.873.29-.007 2.383-.074 2.093-.067.232-.27c.204-.238.227-.337.192-.828-.034-.465-.083-.595-.296-.778l-.256-.22-6.52.007c-3.586.004-7.705.038-9.153.076-3.175.084-3.12.067-3.12.981 0 .47.038.626.185.758.264.239 1.241.319 3.987.325 1.291.003 3.548.033 5.015.067l2.668.062.048 1.855c.053 2.051.1 2.224.663 2.47.383.166.454.166.89-.009zm4.373-9.093c-.088-1.115-.266-1.924-.614-2.797-.34-.852-.52-1.156-.684-1.156-.065 0-.516.297-1.003.659-1.096.815-2.674 1.598-3.786 1.879-1.25.316-3.28.297-4.563-.042a10.843 10.843 0 0 1-3.371-1.594c-.402-.291-.786-.528-.853-.528-.331 0-.945 2.067-1.049 3.532l-.061.865h16.05zm-7.332-2.831c.946-.108 1.897-.425 2.864-.954.825-.451 2.075-1.425 2.075-1.617 0-.231-1.022-.967-2.011-1.449-1.213-.591-2.114-.791-3.555-.791-2.215 0-3.97.668-5.473 2.084l-.515.485.327.288a8.56 8.56 0 0 0 3.12 1.722c1.127.328 1.866.382 3.167.233z"/></symbol><symbol id="icon-arrow-right-button" viewBox="0 0 32 32"><path fill="none" stroke="#d41443" style="stroke:var(--color1, #d41443)" stroke-linejoin="round" stroke-linecap="round" stroke-width="6.4" d="M9.6 3.2 22.4 16 9.6 28.8"/></symbol><symbol id="icon-burger" viewBox="0 0 32 32"><path fill="none" stroke="#d41443" style="stroke:var(--color1, #d41443)" stroke-width="1.6" d="M0 6.4h32M0 16h32M0 25.6h32"/></symbol><symbol id="icon-home-feedback" viewBox="0 0 32 32"><path fill="#d31342" d="M31.618 15.643c.237-.258.382-.603.382-.983a1.45 1.45 0 0 0-.501-1.098l-.002-.002L17.86 1.629a1.69 1.69 0 0 0-1.093-.399c-.431 0-.824.16-1.124.425l.002-.002L1.964 14.197a1.443 1.443 0 0 0-.066 2.078l.345.357c.566.591 1.487.665 2.053.158l1.022-.916V29.28c0 .825.665 1.489 1.489 1.489h5.329c.822 0 1.489-.665 1.489-1.489v-9.378h6.806v9.378c-.012.822.576 1.489 1.398 1.489h5.652c.822 0 1.487-.665 1.487-1.489V16.062l.633.556c.347.305 1.078.059 1.63-.549l.389-.426z"/></symbol><symbol id="icon-close" viewBox="0 0 32 32"><path fill="none" stroke="#fff" style="stroke:var(--color1, #fff)" stroke-width="2" d="m2.52 2 26.96 28M2 29.48 30 2.52"/></symbol><symbol id="icon-double-quotes-bg" viewBox="0 0 43 32" fill="#E1E1E1"><path d="M32.014 0c1.929 0 3.75.52 5.464 1.561s3.107 2.537 4.179 4.488C42.686 8 43.2 10.298 43.2 12.943s-.643 5.225-1.929 7.74c-.429.911-1.2 2.081-2.314 3.512a63.368 63.368 0 0 1-3.214 3.707L31.693 32 28.8 27.187a22.03 22.03 0 0 0 5.336-4.683c1.543-1.821 2.314-3.491 2.314-5.008 0-.78-.171-1.409-.514-1.886a8.359 8.359 0 0 1-5.014 1.626c-1.329 0-2.593-.412-3.793-1.236a8.555 8.555 0 0 1-2.957-3.122c-.771-1.258-1.157-2.558-1.157-3.902 0-1.518.45-2.97 1.35-4.358a10.222 10.222 0 0 1 3.407-3.382C29.143.412 30.558 0 32.015 0zM8.936 0c1.929 0 3.75.52 5.464 1.561s3.107 2.537 4.179 4.488c1.029 1.951 1.543 4.249 1.543 6.894 0 1.864-.236 3.534-.707 5.008-.471 1.518-1.286 3.1-2.443 4.748-1.114 1.561-2.164 2.862-3.15 3.902-.986 1.084-2.7 2.884-5.143 5.398l-2.893-4.813a22.03 22.03 0 0 0 5.336-4.683c1.543-1.821 2.314-3.491 2.314-5.008 0-.78-.171-1.409-.514-1.886a8.359 8.359 0 0 1-5.014 1.626c-1.329 0-2.593-.412-3.793-1.236a8.555 8.555 0 0 1-2.957-3.122C.387 11.619.001 10.319.001 8.975c0-1.518.429-2.97 1.286-4.358S3.28 2.102 4.694 1.235C6.065.411 7.48-.001 8.937-.001z"/></symbol><symbol id="icon-ellipse-feedback" viewBox="0 0 32 32"><path fill="#d9d9d9" d="M32 16c0 8.837-7.163 16-16 16S0 24.837 0 16 7.163 0 16 0s16 7.163 16 16z"/></symbol><symbol id="icon-arrow-right" viewBox="0 0 32 32"><path fill="#fff" style="fill:var(--color1, #fff)" d="M16 0c8.837 0 16 7.163 16 16s-7.163 16-16 16S0 24.837 0 16 7.163 0 16 0z"/><path fill="#d7224d" style="fill:var(--color2, #d7224d)" d="M12.8 15.248H12v1.6h.8v-1.6zm6.848 1.6a.8.8 0 1 0 0-1.6v1.6zm-6.848 0h6.848v-1.6H12.8v1.6z"/><path fill="none" stroke="#d7224d" style="stroke:var(--color2, #d7224d)" stroke-linecap="round" stroke-width="1.568" d="M16.8 12.8 20 16l-3.2 3.2"/></symbol><symbol id="icon-facebook" viewBox="0 0 32 32"><path fill="#FEA5BB" d="M20.446 15.981h-2.611V25.6H13.88v-9.619H12v-3.379h1.88v-2.187c0-1.564.739-4.014 3.991-4.014l2.929.012v3.281h-2.125c-.348 0-.839.176-.839.922v1.989h2.955l-.345 3.377z"/></symbol><symbol id="icon-github" viewBox="0 0 32 32"><path fill="#FEA5BB" d="M16 6.588c-5.17 0-9.412 4.242-9.412 9.412 0 4.411 3.096 8.419 7.206 9.412v-3.113a2.314 2.314 0 0 1-1.196-.031c-.556-.164-1.008-.535-1.344-1.099-.214-.36-.593-.753-.988-.724l-.097-1.098c.856-.073 1.594.521 2.033 1.258.196.328.421.52.709.605.278.083.577.043.925-.08.088-.697.408-.958.649-1.327-2.452-.365-3.429-1.666-3.816-2.692-.514-1.364-.238-3.066.67-4.143.018-.021.05-.075.038-.113-.417-1.259.09-2.3.109-2.41.481.141.559-.143 2.089.786l.264.159c.111.066.075.028.186.019a7.787 7.787 0 0 1 1.97-.276h.006a8.021 8.021 0 0 1 2.002.284l.086.009c-.008-.002.024-.006.075-.037 1.911-1.158 1.842-.779 2.355-.946.019.111.519 1.169.106 2.411-.056.171 1.656 1.739.708 4.256-.388 1.026-1.365 2.328-3.816 2.693.314.48.692.734.69 1.722v3.886c4.109-.993 7.206-5 7.206-9.412 0-5.17-4.242-9.412-9.412-9.412z"/></symbol><symbol id="icon-telegram" viewBox="0 0 32 32"><path fill="#FEA5BB" d="m12.867 18.376-.317 4.169c.455 0 .651-.183.888-.401l2.13-1.901 4.414 3.018c.81.421 1.381.199 1.6-.696l2.897-12.673c.258-1.117-.433-1.554-1.221-1.28L6.226 14.698c-1.162.422-1.145 1.026-.198 1.301l4.355 1.264 10.114-5.907c.476-.295.909-.132.553.163l-8.182 6.856z"/></symbol><symbol id="icon-apples" viewBox="0 0 31 32"><path fill="#ffa5ba" style="fill:var(--color1, #ffa5ba)" d="M21.507 31.937c-.049-.013-.227-.054-.395-.093-.404-.094-.767-.332-1.278-.837l-.413-.408-.046.176c-.04.151-.186.896-.186.946 0 .009-3.482.017-7.737.017-7.329 0-7.738-.004-7.762-.079-.066-.208-.463-2.466-2.497-14.187C-.054 10.288.018 10.741.077 10.464c.038-.183.035-.329-.015-.653A8.645 8.645 0 0 1 0 8.651c.003-.706.01-.762.14-1.133a3.97 3.97 0 0 1 .885-1.461c.424-.449.654-.623 1.151-.871.462-.23 1.043-.382 1.681-.438.267-.024.498-.056.514-.072s-.006-.227-.049-.468c-.228-1.269-.092-2.289.472-3.222.311-.514.561-1.187 1.261-.929.681.25.69.519.685.886-.017.226-.076.324-.304.663-.361.536-.48.9-.491 1.489-.004.255.008.48.027.5s.222-.157.45-.392c.488-.503.873-.787 1.389-1.026.519-.24.871-.323 1.501-.351 1.273-.057 2.202.34 3.198 1.364.274.282.527.513.563.514.203.006.809.144 1.254.288.405.131.52.153.549.107.02-.032.098-.251.171-.486.158-.504.42-1.06.684-1.452.388-.576 1.153-1.262 1.736-1.558.262-.133.772-.135.983-.004.319.197.484.833.307 1.182-.122.24-.203.306-.625.505-.57.269-.972.709-1.308 1.432-.191.411-.171.417.476.148.514-.214.905-.267 1.776-.244.661.019.754.031 1.114.157a3.962 3.962 0 0 1 2.432 2.434c.117.339.139.476.158 1 .026.726-.034 1.229-.221 1.856l-.188.63c-.049.164-.044.174.137.36.221.226.326.456.326.712 0 .103-.072.564-.159 1.025-.448 2.361-1.455 8.393-1.472 8.815l-.011.294.54.166c.297.091.669.221.827.289s.31.114.339.103c.029-.011.089-.139.134-.284.274-.885.617-1.456 1.228-2.044.742-.715 1.566-1.149 2.113-1.114.216.013.313.045.44.142.334.255.44.721.243 1.072-.105.187-.255.297-.676.496-.376.178-.79.47-1.055.745-.217.224-.625.913-.592.999.007.021.257-.06.554-.18.676-.273 1.027-.33 1.845-.3.687.026 1.025.105 1.53.359.389.195.633.371.984.706a3.81 3.81 0 0 1 1.07 1.715c.093.295.105.425.105 1.078 0 .448-.025.868-.062 1.058-.166.843-.669 2.005-1.268 2.925a42.59 42.59 0 0 1-1.153 1.606c-.944 1.262-.906 1.231-1.67 1.385-.707.143-1.318.162-2.182.069-.631-.068-.798-.072-1.097-.025-.366.057-1.725.105-1.883.066zm1.141-1.73c.231-.024.579-.085.773-.134.487-.124.732-.116 1.035.034.235.116.279.122.86.118.787-.006.904-.03 1.131-.233.276-.248 1.034-1.213 1.464-1.866.885-1.341 1.268-2.408 1.214-3.381-.039-.69-.316-1.22-.843-1.617-.396-.298-.694-.398-1.264-.424-.884-.041-1.241.143-1.962 1.012-.468.564-.66.69-1.097.721-.597.043-.848-.099-1.384-.781-.573-.73-1.03-.975-1.808-.973-1.116.004-2.083.816-2.217 1.862-.127.994.258 2.132 1.197 3.537.523.782.848 1.192 1.332 1.681.495.499.642.541 1.57.443zm-4.838-.528c.039-.217.096-.541.125-.721l.054-.327-.319-.663c-.379-.787-.59-1.327-.734-1.878-.091-.349-.106-.51-.105-1.17.001-.594.019-.83.081-1.055.257-.927.868-1.739 1.723-2.289.742-.478.666-.383.773-.96.106-.571.727-4.299.727-4.363 0-.104-.135-.002-.682.51-.845.792-1.242 1.116-1.915 1.564-2.491 1.657-5.459 2.292-8.18 1.75-1.642-.327-3.335-1.12-4.659-2.182-.21-.168-.734-.651-1.165-1.073s-.791-.744-.801-.716c-.023.066.297 1.953 1.61 9.511.586 3.375.757 4.288.811 4.343.047.047 3.374.083 9.384.102l3.201.009zm-5.955-11.17c.953-.047 1.426-.135 2.34-.434 1.106-.363 2.35-1.051 3.232-1.788.774-.647 1.589-1.576 2.089-2.381.37-.596.946-1.797 1.09-2.271l.031-.102-7.53.009c-8.579.009-10.58.032-10.663.115-.085.085.043.436.479 1.304.622 1.241 1.171 2.013 2.054 2.889a9.582 9.582 0 0 0 4.538 2.521c.738.172 1.149.197 2.341.138zm8.804-9.188c.361-.902.482-1.627.38-2.282a1.835 1.835 0 0 0-.555-1.086A2.289 2.289 0 0 0 18.65 5.3c-.744.072-1.111.299-1.547.959-.491.741-.701.886-1.288.887-.337 0-.408-.015-.594-.124a2.084 2.084 0 0 1-.428-.381c-.493-.586-1.019-1.092-1.135-1.092-.015 0-.028.613-.028 1.361.001 1.053-.017 1.485-.077 1.909-.043.301-.078.64-.078.753v.205l1.316.013c.724.007 2.297.013 3.496.011l2.18-.001.192-.48zm-9.156.384c.159-.024.168-.035.213-.258.064-.322.126-.757.162-1.146.049-.529.036-2.077-.021-2.394-.207-1.156-.791-1.972-1.618-2.256-.765-.263-1.709-.07-2.332.479-.333.293-.521.697-.67 1.44-.131.652-.213.848-.459 1.095-.266.266-.468.345-.885.344-.336 0-.394-.015-.878-.233-.292-.132-.639-.252-.796-.277-.905-.144-1.886.411-2.336 1.322-.164.332-.176.382-.191.835-.017.496.064.94.185 1.019.031.02.39.048.798.063.887.032 8.59.004 8.829-.031z"/></symbol><symbol id="icon-cow" viewBox="0 0 21 32"><path fill="none" stroke="#ffa5ba" style="stroke:var(--color1, #ffa5ba)" stroke-miterlimit="22.926" stroke-width=".418" d="m5.343 5.872-1.65 1.131c-.691.475-1.73.401-2.308-.166-.579-.564-.49-1.412.202-1.887l1.902-1.306"/><path fill="#ffa5ba" style="fill:var(--color1, #ffa5ba)" d="M9.59 11.531c-.697-.164-1.294-.606-1.589-1.177-.152-.293-.197-.569-.228-1.398l-.039-1.033-.543-.195a11.317 11.317 0 0 1-1.216-.554l-.673-.36-.806.539c-1.167.781-1.919.896-2.943.452C.739 7.452.275 6.771.281 5.938c.005-.756.313-1.192 1.361-1.928.463-.325.835-.648.827-.717s-.097-.441-.199-.826A5.947 5.947 0 0 1 2.085.894V.022h16.236l-.042.952a8.177 8.177 0 0 1-.244 1.687c-.111.404-.187.747-.168.762s.359.253.757.53c1.191.828 1.504 1.316 1.428 2.23-.073.879-.797 1.604-1.812 1.815-.832.173-1.558-.042-2.558-.756-.308-.22-.586-.399-.619-.399s-.455.198-.939.44-1.038.488-1.231.546l-.352.106V8.95c0 .936-.019 1.049-.24 1.457-.281.517-.764.879-1.439 1.079-.525.156-.764.164-1.269.045zm1.23-1.628c.205-.134.212-.175.213-1.267 0-.62.026-1.337.057-1.593l.056-.465h.371c.433 0 1.455-.33 2.087-.674.262-.143.591-.433.807-.714.201-.26.383-.473.405-.473s.326.232.676.516c1.062.862 1.733 1.277 2.133 1.317.699.071 1.2-.497.795-.902-.079-.079-.718-.521-1.418-.982l-1.274-.838.368-.583c.409-.648.598-1.108.603-1.474l.003-.244H3.576l.062.288c.114.53.308 1.025.616 1.571l.306.541-.408.24c-1.053.62-2.27 1.483-2.356 1.672-.186.407.47.83 1.08.696.143-.031.793-.426 1.446-.877l1.186-.82.322.37c.556.639 2.182 1.369 3.049 1.369h.383v1.468c0 .88.038 1.539.096 1.646.218.408.993.519 1.464.21z"/><path fill="#ffa5ba" style="fill:var(--color1, #ffa5ba)" d="M9.77 11.604a2.897 2.897 0 0 1-.734-.229c-.596-.282-1.005-.734-1.195-1.319l-.061-.188-.014-.947c-.009-.521-.02-.952-.027-.959s-.17-.066-.364-.131a8.925 8.925 0 0 1-1.784-.838c-.13-.082-.248-.148-.262-.148s-.318.199-.675.443c-.843.575-1.05.678-1.539.762-.972.167-1.982-.206-2.507-.925l-.063-.086V4.912l.092-.12c.168-.218.405-.412.994-.815.321-.219.643-.455.717-.523l.133-.124-.115-.363c-.263-.825-.337-1.334-.337-2.312 0-.531.003-.606.035-.618C2.083.03 5.751.023 10.215.023h8.116V.54c0 1.015-.097 1.675-.365 2.472-.055.164-.1.318-.099.343.001.034.173.162.7.521.784.534.927.648 1.118.886.509.636.575 1.475.172 2.185-.182.321-.587.691-.961.877-.576.288-1.402.342-2.038.134-.295-.097-.504-.216-1.152-.66a75.723 75.723 0 0 0-.647-.441c-.032-.019-.093.011-.427.213a8.704 8.704 0 0 1-1.754.792l-.281.092-.009.934c-.009.888-.011.943-.058 1.11-.276.973-1.247 1.639-2.373 1.627a3.597 3.597 0 0 1-.388-.022zm.777-1.591c.192-.067.351-.182.424-.305l.062-.106.014-3.019.358-.011c.312-.009.391-.019.613-.079a7.458 7.458 0 0 0 1.484-.574c.464-.246.484-.263.906-.784.211-.261.393-.474.403-.474s.27.204.576.454c.505.412 1.584 1.188 1.818 1.309.383.197.982.114 1.231-.169.16-.182.165-.374.014-.541-.103-.114-1.307-.938-2.118-1.45l-.658-.415.059-.093c.643-1.013.74-1.179.804-1.387.059-.192.126-.474.164-.693l.014-.083H3.645v.056c0 .174.199.892.319 1.151.04.086.199.373.353.637s.281.489.281.498c0 .009-.274.176-.609.371-.531.309-1.573.996-1.981 1.307-.267.204-.295.449-.076.664.178.175.48.269.795.249a.961.961 0 0 0 .509-.165c.147-.09.888-.597 1.506-1.03l.591-.414.192-.135.193.268c.215.299.338.405.779.67a6.986 6.986 0 0 0 1.955.8c.193.047.286.056.548.056h.316v1.499c0 1.47.001 1.501.046 1.594.159.328.743.497 1.185.342zM2.284 25.997c-.007-.027-.4-2.241-.875-4.92l-.864-4.87V12.54l.112-.024c.079-.018 2.889-.024 9.652-.024 10.596 0 9.685-.014 9.924.149.197.135.335.39.335.619 0 .053-.014.164-.033.246-.034.15-2.226 12.481-2.226 12.52 0 .012-.314.021-.799.021-.75 0-.798-.002-.787-.039.025-.083 1.41-7.921 1.403-7.941-.003-.012-.08.067-.17.175-.271.327-1.071 1.107-1.419 1.385-1.564 1.249-3.242 1.951-5.216 2.182-.466.055-1.572.055-2.038.001-2.058-.239-3.804-.995-5.426-2.351-.33-.276-.881-.825-1.172-1.169-.121-.143-.222-.257-.225-.254s.313 1.794.701 3.981.707 3.988.707 4.003c0 .022-.171.028-.785.028h-.786l-.011-.05zm8.889-5.743c2.488-.258 4.756-1.664 6.215-3.852.138-.207.299-.461.357-.565.264-.469.571-1.15.732-1.622l.051-.15h-8.227c-4.525 0-8.227.005-8.227.012s.046.137.101.29a9.27 9.27 0 0 0 2.097 3.345c.192.196.459.45.593.564a8.448 8.448 0 0 0 5.06 2.022c.264.014.915-.009 1.248-.043z"/><path fill="#ffa5ba" style="fill:var(--color1, #ffa5ba)" d="M3.371 31.743c-.029-.047-.271-1.312-.539-2.813l-1.605-8.974C.612 16.521.108 13.534.108 13.318c0-.317.046-.431.241-.599l.241-.207 19.583.047.169.209c.093.115.169.325.169.467s-.52 3.177-1.156 6.746c-.636 3.568-1.361 7.644-1.61 9.057s-.492 2.619-.538 2.68c-.105.139-13.751.164-13.837.026zm12.659-1.665c.028-.134.229-1.26.448-2.503l1.02-5.778c.342-1.936.623-3.568.623-3.627s-.389.272-.864.736c-.475.464-1.118 1.015-1.429 1.224-.823.554-2.096 1.131-3.087 1.399-.789.214-1.008.235-2.461.232-1.354-.002-1.7-.031-2.29-.194-1.85-.509-3.237-1.292-4.607-2.603-.493-.472-.904-.851-.913-.842s.22 1.352.509 2.984c.85 4.808 1.327 7.52 1.475 8.394l.139.82H15.98zm-4.066-9.935c2.162-.446 4.184-1.85 5.484-3.808.447-.674 1.023-1.887 1.025-2.16.001-.147-.448-.155-8.194-.155-5.759 0-8.195.028-8.195.095 0 .251.61 1.512 1.073 2.217 1.353 2.061 3.502 3.499 5.807 3.886.788.132 2.163.098 3-.075z"/><path fill="#ffa5ba" style="fill:var(--color1, #ffa5ba)" d="M3.334 31.629c-.041-.11-.638-3.349-1.326-7.198C-.182 12.179-.045 13.116.305 12.743l.215-.229h19.625l.184.233a.983.983 0 0 1 .184.519c0 .265-.736 4.525-2.035 11.784-.856 4.782-1.162 6.456-1.21 6.623-.042.146-.45.155-6.952.155H3.409zm12.66-1.381c0-.041.138-.848.306-1.794s.627-3.554 1.02-5.795.736-4.17.762-4.285c.036-.161-.138-.039-.75.521-1.092 1.001-1.661 1.412-2.61 1.883-1.519.754-2.723 1.035-4.453 1.038-2.665.005-4.872-.908-6.912-2.859-.456-.436-.829-.736-.829-.666s.161 1.041.357 2.159c.197 1.118.656 3.747 1.021 5.842s.681 3.859.703 3.92c.031.087 1.254.111 5.712.111 3.12 0 5.673-.033 5.673-.074zm-3.709-10.209c2.386-.563 4.7-2.516 5.782-4.88.496-1.083.503-1.028-.143-1.074-.635-.046-12.996-.043-14.705.004l-1.124.031.118.334c.609 1.725 2.227 3.685 3.842 4.652.808.484 2.158.978 3.028 1.109.79.119 2.309.036 3.201-.174z"/><path fill="#ffa5ba" style="fill:var(--color1, #ffa5ba)" d="M3.36 31.812c-.029-.035-.223-.997-.43-2.139C1.862 23.804.685 17.191.315 14.985c-.328-1.956-.328-1.964.007-2.304l.208-.211h19.588l.136.144c.151.16.226.289.284.489.04.139-.071.826-.849 5.259a2207.561 2207.561 0 0 1-2.327 13c-.041.219-.097.418-.123.444-.033.031-2.242.05-6.937.058-5.936.011-6.896.003-6.941-.051zm12.581-1.579c.012-.012.483-2.643 1.048-5.847s1.037-5.87 1.05-5.925c.049-.202.076-.223-1.248.945a9.145 9.145 0 0 1-2.193 1.452c-1.366.66-2.374.915-3.895.986a9.952 9.952 0 0 1-3.078-.344c-1.605-.449-2.914-1.227-4.387-2.605-.291-.272-.567-.515-.613-.54-.076-.041-.082-.033-.059.08a1822.653 1822.653 0 0 0 1.561 8.941c.232 1.316.434 2.462.447 2.547.043.272.079.304.356.323.378.025 10.986.014 11.011-.012zm-4.072-10.139c1.913-.342 3.789-1.532 5.145-3.263a8.65 8.65 0 0 0 1.02-1.682c.337-.706.403-.897.332-.968-.08-.08-1.983-.109-7.223-.109-5.042-.001-8.921.039-8.973.09-.045.045.214.686.497 1.225.64 1.223 1.721 2.489 2.819 3.299.86.635 2.126 1.186 3.317 1.444.366.079.537.088 1.477.073.834-.012 1.177-.037 1.59-.111z"/><path fill="#ffa5ba" style="fill:var(--color1, #ffa5ba)" d="M3.357 31.819c-.053-.064-.231-.985-.783-4.044C1.36 21.044.481 16.077.204 14.375c-.208-1.278-.203-1.368.111-1.686l.215-.219h19.631l.158.21c.248.329.273.455.191.968-.109.679-.652 3.815-1.039 5.998-1.773 9.996-2.156 12.085-2.23 12.159-.088.088-13.812.101-13.884.014zm12.572-1.609c.018-.011.041-.094.054-.186s.345-1.981.738-4.198l1.001-5.648c.157-.889.297-1.663.31-1.719.02-.087.012-.096-.055-.059-.043.024-.328.265-.633.537-1.104.985-1.625 1.363-2.493 1.81-1.601.823-3.075 1.155-4.882 1.099-1.554-.048-2.757-.348-4.075-1.018-.934-.474-1.682-1.022-2.808-2.057-.45-.413-.542-.474-.51-.332.011.043.148.835.307 1.761.885 5.149 1.713 9.804 1.763 9.901l.056.111 1.172.022c1.337.025 10.01.005 10.056-.023zm-5.086-10.032c1.207-.064 1.938-.249 2.98-.753.943-.456 1.702-1.017 2.526-1.867.773-.797 1.155-1.352 1.687-2.448.187-.386.297-.668.3-.772l.005-.163-.354-.034c-.458-.044-13.773-.053-14.92-.011-1 .037-.945.004-.757.468.61 1.509 1.923 3.174 3.254 4.128.732.524 1.934 1.065 2.938 1.322.684.175 1.074.196 2.341.129z"/><path fill="#ffa5ba" style="fill:var(--color1, #ffa5ba)" d="M3.357 31.817c-.077-.094-.31-1.339-1.556-8.295C.812 18 .233 14.677.095 13.732c-.083-.57-.05-.747.193-1.038l.188-.224h19.7l.157.206c.284.371.285.407.071 1.668-.519 3.061-2.555 14.506-2.932 16.486-.097.511-.198.954-.224.986-.069.083-13.824.084-13.892.002zm12.413-1.62.175-.031.587-3.322 1.035-5.84c.246-1.385.44-2.539.431-2.566-.009-.026-.264.17-.566.436-1.303 1.146-1.805 1.503-2.767 1.969-1.459.708-2.455.956-4.034 1.004-2.859.088-4.986-.747-7.348-2.883-.592-.536-.689-.608-.689-.517 0 .082 1.355 7.843 1.798 10.302.266 1.476.253 1.43.428 1.452.256.032 10.769.028 10.95-.003zm-4.415-10.066c1.159-.127 2.187-.49 3.241-1.145 1.078-.67 2.258-1.841 2.882-2.861.228-.372.667-1.241.785-1.554.152-.401.156-.399-.856-.433-1.12-.037-13.195-.031-14.292.009-.503.018-.848.048-.877.078-.101.101.402 1.143.95 1.967.705 1.059 1.649 2.036 2.552 2.639.763.51 2.137 1.088 3.032 1.276.379.08 1.947.095 2.582.025zM9.593 11.559c-.592-.128-1.173-.507-1.476-.963-.287-.432-.34-.676-.346-1.591-.003-.445-.018-.867-.033-.936-.025-.114-.071-.142-.449-.276-.403-.143-1.349-.594-1.774-.845l-.201-.119-.618.424c-.34.233-.742.487-.894.564-.964.489-2.31.269-3.007-.492C.297 6.782.126 6.086.329 5.433c.177-.569.435-.855 1.334-1.477.305-.211.613-.432.686-.492.13-.107.131-.113.076-.302-.311-1.069-.428-1.862-.4-2.696l.014-.421L18.318.024V.62c0 .771-.095 1.481-.288 2.152-.085.296-.154.561-.154.589s.322.271.715.539c.994.678 1.223.917 1.417 1.479a2.05 2.05 0 0 1-.011 1.226c-.351.947-1.336 1.534-2.454 1.464-.661-.041-.934-.158-1.882-.806-.336-.23-.623-.418-.637-.418s-.2.103-.412.229c-.498.294-.94.499-1.521.704l-.465.165-.027.968c-.023.826-.04 1.003-.117 1.201-.145.373-.3.604-.573.854-.591.541-1.491.772-2.316.594zM10.69 9.95c.348-.178.341-.141.356-1.847l.014-1.513.43-.023c.511-.027 1.127-.215 1.852-.565.53-.256.687-.385 1.13-.933.176-.218.329-.396.34-.396s.292.217.624.482c.769.614 1.637 1.218 1.889 1.314.705.269 1.56-.332 1.103-.776-.158-.153-1.195-.864-2.034-1.395-.341-.216-.638-.408-.659-.427s.135-.316.352-.665c.386-.622.562-1.047.603-1.46l.016-.153-13.058-.021.028.242c.047.404.264.966.601 1.556.176.308.303.575.283.592s-.326.202-.679.411c-.737.435-1.835 1.18-1.982 1.344-.425.476.49 1.038 1.181.725.156-.071 1.778-1.165 2.318-1.563.067-.049.128-.081.136-.07l.222.292c.511.675 2.262 1.476 3.226 1.476h.34l.005 1.53c.004 1.124.019 1.554.059 1.619.062.102.287.251.465.308.197.063.637.019.842-.086z"/><path fill="#ffa5ba" style="fill:var(--color1, #ffa5ba)" d="M9.726 11.598c-.746-.125-1.463-.639-1.773-1.271l-.15-.305-.036-.98c-.02-.539-.045-1.003-.054-1.031s-.214-.126-.453-.218a11.003 11.003 0 0 1-1.583-.745l-.351-.208-.703.473c-.722.486-1.053.652-1.456.728-.566.107-1.308.001-1.781-.254a2.43 2.43 0 0 1-.951-.978C.274 6.482.269 6.46.269 5.984c0-.472.006-.502.16-.822.205-.424.427-.643 1.235-1.217.353-.251.676-.494.718-.541.072-.08.07-.106-.036-.482-.226-.804-.287-1.208-.314-2.069L2.006.022H18.32v.639c0 .892-.059 1.31-.316 2.24l-.128.464.1.078c.055.043.38.272.721.51.739.515 1.031.798 1.213 1.173.714 1.47-.551 3.049-2.36 2.947-.617-.035-.898-.15-1.771-.725l-.756-.498-.267.156c-.419.244-1.295.656-1.685.792-.195.068-.379.154-.41.192-.039.048-.055.281-.056.802-.001 1.236-.104 1.577-.638 2.108a2.323 2.323 0 0 1-1.209.664 3.54 3.54 0 0 1-1.032.035zm.841-1.619c.236-.073.346-.161.393-.315.039-.126.091-1.624.093-2.676l.001-.41.188-.001c.538-.002 1.26-.198 1.98-.535.593-.278.767-.412 1.178-.907.211-.254.397-.462.413-.462s.298.213.627.471c.75.59 1.465 1.099 1.739 1.239.292.148.543.175.841.089.465-.135.663-.524.395-.774-.161-.15-1.157-.833-1.994-1.368a17.25 17.25 0 0 1-.689-.454c-.024-.023.116-.3.34-.673.376-.628.541-1.014.592-1.382l.026-.19-6.499-.032c-3.575-.018-6.51-.021-6.523-.009-.037.037.074.547.193.89.059.171.247.564.417.874s.309.573.309.584c0 .011-.274.184-.609.385-.811.485-1.757 1.127-1.992 1.35-.232.221-.244.352-.053.57a.761.761 0 0 0 .362.223c.267.079.393.083.626.018.146-.04 1.119-.671 2.324-1.506l.282-.196.094.133c.552.783 2.137 1.576 3.292 1.648l.406.025.014 1.54c.014 1.466.019 1.544.103 1.637.252.278.665.355 1.13.212zM3.353 31.814c-.081-.098-.253-1.004-1.331-7.007C.871 18.398.217 14.643.068 13.597c-.064-.452-.017-.645.227-.921l.181-.206h19.727l.142.21c.208.309.246.44.213.738-.026.237-.452 2.74-.842 4.944-1.142 6.467-2.214 12.428-2.351 13.081-.036.172-.088.339-.114.371-.04.048-1.276.059-6.948.059s-6.908-.011-6.948-.059zm12.563-1.643c.014-.014.17-.848.347-1.853l.925-5.239a951.625 951.625 0 0 0 .797-4.552c.009-.043.003-.077-.012-.077s-.365.289-.776.642c-1.166 1.002-1.539 1.263-2.465 1.728-1.429.717-2.493.984-4.098 1.028-1.386.038-2.3-.083-3.424-.455-1.5-.497-2.436-1.09-4.214-2.67-.201-.178-.373-.317-.382-.307-.018.018.012.197.538 3.223.991 5.71 1.469 8.355 1.528 8.467.038.072.122.082.74.097 1.051.025 10.469-.003 10.497-.033zm-4.163-10.103c1.325-.221 2.558-.793 3.71-1.721.453-.365 1.297-1.236 1.636-1.688.476-.635 1.221-2.061 1.221-2.337 0-.113-.014-.12-.299-.155-.412-.051-15.159-.038-15.493.014-.263.04-.266.042-.259.183.009.193.474 1.123.847 1.694.648.992 1.652 2.069 2.462 2.644.904.641 2.565 1.323 3.485 1.432.488.058 2.205.016 2.692-.065z"/></symbol><symbol id="icon-heart" viewBox="0 0 30 32"><path fill="#ffa5ba" style="fill:var(--color1, #ffa5ba)" d="m13.484 31.945-1.387-.033-.036-.596a92.578 92.578 0 0 1-.052-2.854c-.02-2.881-.104-4.663-.228-4.819-.054-.067-.675-.534-1.382-1.038-3.681-2.623-6.405-5.268-8.124-7.89-.674-1.028-1.512-2.755-1.83-3.771C.089 9.808.02 9.131.052 7.134l.03-1.832.329-.688C1.435 2.469 2.972 1.101 5.219.333 5.87.111 6.063.088 7.61.054c2.01-.044 2.582.05 3.789.625.916.436 1.358.764 2.526 1.876l.808.769 1.046-.959C17.836.478 18.654.131 21.222.056c1.605-.047 2.244.026 3.264.371 1.37.464 2.816 1.547 3.679 2.756.524.734 1.08 1.937 1.236 2.675.169.798.171 3.091.002 3.89-.196.929-.636 2.106-1.164 3.11-.942 1.792-1.966 3.112-3.971 5.117-1.563 1.563-2.744 2.57-5.114 4.361l-1.563 1.18-.05 1.078c-.028.593-.073 2.471-.102 4.175s-.06 3.106-.071 3.117c-.049.049-2.624.088-3.882.058zm1.874-1.886c.188-.119.26-5.088.075-5.158-.065-.024-.453-.025-.862 0l-.743.044.052 2.357c.029 1.296.078 2.444.11 2.551s.144.211.248.232c.367.072.989.058 1.12-.025zm-.059-7.439c1.956-1.143 5.514-3.882 7.666-5.902l.654-.614-.272-.485c-.307-.547-.425-1.131-.504-2.478-.081-1.379-.218-2.664-.319-2.98-.113-.355-.515-.547-.839-.399-.37.169-.41.372-.615 3.184-.154 2.114-.259 2.454-.951 3.076-1.01.908-2.691.864-3.65-.095-.568-.568-.65-.868-.799-2.93-.213-2.944-.233-3.043-.656-3.218-.36-.149-.663-.062-.796.23-.06.131-.188 1.273-.285 2.539-.102 1.331-.227 2.422-.297 2.588-.168.402-.714.983-1.182 1.257-.524.307-1.596.387-2.182.164-.836-.319-1.487-.994-1.647-1.707-.042-.186-.14-1.234-.218-2.33-.166-2.335-.225-2.629-.554-2.754-.309-.118-.609-.036-.765.21-.128.2-.24 1.123-.41 3.385-.115 1.524-.118 1.54-.54 2.314l-.343.63.952.88c1.941 1.794 3.158 2.765 5.119 4.084 1.031.694 2.679 1.702 2.782 1.702.028 0 .321-.158.652-.352zm-3.834-7.886c.093-.05.21-.167.26-.26s.171-1.198.269-2.456c.202-2.583.299-2.929.987-3.518.611-.523.912-.628 1.801-.627.902.001 1.255.136 1.838.703.657.64.741.995.855 3.646.088 2.057.153 2.317.623 2.512.148.061.362.088.476.059.388-.097.401-.173.679-3.843.049-.65.149-1.319.225-1.499.213-.51.689-1.029 1.207-1.314.429-.237.553-.262 1.272-.26.643.002.867.039 1.16.193.482.254 1.211 1.063 1.346 1.494.059.19.172 1.342.249 2.56s.157 2.23.176 2.25c.14.145 1.013-1.152 1.708-2.537.627-1.251.869-2.028.987-3.167.24-2.326-.214-3.656-1.77-5.178-1.222-1.196-2.142-1.525-4.298-1.537-1.338-.007-1.867.095-2.742.534-.654.328-1.115.718-2.351 1.988l-1.107 1.138h-.47c-.259 0-.557-.045-.664-.099s-.712-.627-1.345-1.271c-1.264-1.286-1.877-1.734-2.82-2.062-.596-.207-.701-.215-2.312-.182-1.552.032-1.73.053-2.22.256-1.338.554-2.558 1.669-3.161 2.887l-.381.769.01 1.689c.012 1.926.114 2.463.744 3.885.429.969 1.24 2.425 1.568 2.815.215.256.239.265.298.107.035-.094.109-.706.165-1.361.306-3.583.306-3.58.713-4.143.564-.779 1.461-1.158 2.46-1.041 1.204.141 2.018.859 2.226 1.964.045.24.148 1.331.229 2.425.144 1.945.236 2.404.507 2.513a.741.741 0 0 0 .603-.031z"/></symbol><symbol id="icon-arrow1" viewBox="0 0 37 32"><path d="m23.208 31.234 13.327-13.327c.482-.482.78-1.149.78-1.884s-.298-1.402-.78-1.884L23.208.812a2.665 2.665 0 1 0-3.769 3.768l.001.001 8.777 8.777H2.666a2.665 2.665 0 1 0 0 5.33h25.551l-8.777 8.777c-.52.52-.781 1.202-.781 1.884s.26 1.365.781 1.884c.482.482 1.149.78 1.884.78s1.402-.298 1.884-.78z"/><path d="M20.538 31.852c-.707-.226-1.258-.714-1.604-1.423-.181-.37-.191-.424-.191-1.072 0-1.193-.388-.718 4.947-6.065l4.601-4.612H15.48c-8.415 0-12.943-.021-13.197-.061a2.673 2.673 0 0 1-2.207-2.19c-.193-1.126.406-2.242 1.491-2.779l.442-.219 26.278-.031-4.572-4.581c-4.185-4.194-4.588-4.615-4.762-4.973-.368-.76-.383-1.532-.043-2.273a2.34 2.34 0 0 1 .825-1.018 2.632 2.632 0 0 1 3.114.004c.55.412 13.854 13.776 14.042 14.106.346.605.465 1.317.323 1.934-.171.744.098.453-7.288 7.853-3.803 3.81-7.041 7.009-7.196 7.109-.615.397-1.497.514-2.194.292z"/><path d="M20.731 31.924c-.667-.124-1.466-.783-1.796-1.48-.182-.385-.191-.436-.191-1.115 0-1.164-.354-.731 4.929-6.021 2.493-2.496 4.532-4.558 4.532-4.582s-5.745-.044-12.767-.044c-8.522 0-12.896-.021-13.153-.062-1.538-.245-2.548-1.751-2.163-3.227.203-.78.693-1.365 1.468-1.753l.472-.236h13.072c7.19 0 13.072-.019 13.072-.043s-2.038-2.086-4.53-4.582c-4.148-4.157-4.546-4.572-4.719-4.93-.395-.817-.383-1.64.035-2.437.638-1.215 2.17-1.71 3.444-1.113.381.178.77.557 7.383 7.166 6.913 6.909 6.984 6.982 7.197 7.435.397.841.341 1.778-.151 2.525-.309.47-13.944 14.077-14.265 14.236a3.19 3.19 0 0 1-1.868.265z"/></symbol></defs></svg>