<svg aria-hidden="true" style="position: absolute; width: 0; height: 0; overflow: hidden;" version="1.1"
  xmlns="http://www.w3.org/2000/svg" xmlns:xlink="http://www.w3.org/1999/xlink">
  <defs>
    <svg aria-hidden="true" style="position: absolute; width: 0; height: 0; overflow: hidden;" version="1.1"
      xmlns="http://www.w3.org/2000/svg" xmlns:xlink="http://www.w3.org/1999/xlink">
      <defs>
        <symbol id="icon-logo" viewBox="0 0 123 32">
          <path fill="#d41442" style="fill: var(--color1, #d41442)"
            d="M50.869 20.027c0 0.109-0.303 0.197-0.909 0.261s-1.215 0.097-1.826 0.097-1.001-0.027-1.17-0.082c-0.169-0.055-0.253-0.146-0.253-0.276v-9.269c0-0.219 0.288-0.435 0.864-0.648s1.222-0.32 1.938-0.32c0.636 0 1.053 0.134 1.252 0.402 0.069 0.099 0.105 0.199 0.105 0.298zM59.526 20.273c-0.397 0.094-0.802 0.159-1.215 0.194s-0.814 0.052-1.207 0.052c-0.392 0-0.695-0.010-0.909-0.030s-0.494-0.069-0.842-0.149c-0.347-0.080-0.665-0.189-0.954-0.328s-0.593-0.343-0.917-0.611c-0.323-0.268-0.593-0.586-0.812-0.954-0.506-0.855-0.76-1.957-0.76-3.308 0-0.904 0.142-1.704 0.425-2.399s0.626-1.232 1.028-1.609c0.402-0.377 0.862-0.681 1.378-0.909 0.834-0.377 1.674-0.566 2.518-0.566 1.212 0 2.081 0.099 2.608 0.298 0.238 0.090 0.452 0.228 0.641 0.418s0.283 0.462 0.283 0.82-0.087 0.81-0.261 1.356c-0.174 0.547-0.425 0.82-0.752 0.82-0.099 0-0.467-0.080-1.103-0.238s-1.068-0.238-1.297-0.238c-0.348 0-0.643 0.194-0.887 0.581s-0.365 0.939-0.365 1.654c0 0.715 0.107 1.271 0.32 1.669s0.494 0.596 0.842 0.596c0.248 0 0.698-0.102 1.348-0.306s1.031-0.306 1.14-0.306c0.308 0 0.549 0.283 0.723 0.849s0.261 1.023 0.261 1.371-0.107 0.623-0.32 0.827c-0.214 0.203-0.519 0.352-0.917 0.447v-0.001zM69.392 20.385h-6.319c-0.487 0-0.814-0.035-0.984-0.105s-0.253-0.178-0.253-0.328v-9.433c0-0.258 0.117-0.442 0.35-0.551s0.653-0.164 1.259-0.164h5.991c0.209 0 0.313 0.345 0.313 1.036s-0.045 1.217-0.134 1.58c-0.090 0.363-0.209 0.544-0.358 0.544-0.646 0-1.734-0.065-3.264-0.194v0.998c1.471-0.060 2.429-0.090 2.876-0.090 0.268 0 0.402 0.313 0.402 0.939s-0.052 1.1-0.156 1.423c-0.105 0.323-0.246 0.484-0.424 0.484l-2.697-0.060v0.954c1.728-0.129 2.921-0.193 3.576-0.193 0.209 0 0.313 0.347 0.313 1.043s-0.045 1.222-0.134 1.58c-0.090 0.358-0.209 0.536-0.358 0.536h-0.001zM78.392 20.273c-0.397 0.094-0.802 0.159-1.215 0.194s-0.814 0.052-1.207 0.052c-0.392 0-0.695-0.010-0.909-0.030s-0.494-0.069-0.842-0.149c-0.347-0.080-0.665-0.189-0.954-0.328s-0.593-0.343-0.917-0.611c-0.323-0.268-0.593-0.586-0.812-0.954-0.506-0.855-0.76-1.957-0.76-3.308 0-0.904 0.141-1.704 0.424-2.399s0.626-1.232 1.028-1.609c0.402-0.377 0.862-0.681 1.378-0.909 0.834-0.377 1.674-0.566 2.518-0.566 1.212 0 2.081 0.099 2.608 0.298 0.238 0.090 0.452 0.228 0.641 0.418s0.283 0.462 0.283 0.82-0.087 0.81-0.261 1.356c-0.174 0.547-0.424 0.82-0.752 0.82-0.099 0-0.467-0.080-1.103-0.238s-1.068-0.238-1.297-0.238c-0.348 0-0.643 0.194-0.887 0.581s-0.365 0.939-0.365 1.654c0 0.715 0.107 1.271 0.32 1.669s0.494 0.596 0.842 0.596c0.248 0 0.698-0.102 1.348-0.306s1.031-0.306 1.14-0.306c0.308 0 0.549 0.283 0.723 0.849s0.261 1.023 0.261 1.371-0.107 0.623-0.32 0.827c-0.214 0.203-0.519 0.352-0.917 0.447v-0.001zM84.874 19.953c0 0.129-0.303 0.234-0.909 0.313-0.603 0.078-1.215 0.119-1.825 0.119h-0.002c-0.611 0-1.003-0.035-1.177-0.105s-0.261-0.178-0.261-0.328v-9.582c0-0.258 0.326-0.442 0.976-0.551s1.473-0.164 2.467-0.164 1.637 0.002 1.93 0.007c0.293 0.005 0.639 0.023 1.035 0.052s0.713 0.080 0.946 0.149c0.234 0.069 0.492 0.159 0.775 0.268s0.504 0.251 0.663 0.425c0.159 0.174 0.313 0.38 0.462 0.619 0.268 0.427 0.402 1.035 0.402 1.826s-0.131 1.455-0.395 1.997-0.613 0.951-1.051 1.23c1.143 1.798 1.714 2.941 1.714 3.427s-0.979 0.73-2.936 0.73c-0.566 0-0.959-0.025-1.177-0.074s-0.358-0.159-0.418-0.328l-0.969-3.070-0.253-0.015v3.055l0.002-0.001 0.001 0zM84.874 14.604h0.388c0.576 0 0.864-0.447 0.864-1.341 0-0.457-0.077-0.78-0.231-0.969s-0.33-0.283-0.529-0.283h-0.492zM98.927 20.386h-6.319c-0.487 0-0.814-0.035-0.984-0.105s-0.253-0.178-0.253-0.328v-9.433c0-0.258 0.117-0.442 0.35-0.551s0.653-0.164 1.259-0.164h5.991c0.209 0 0.313 0.345 0.313 1.036s-0.045 1.217-0.134 1.58c-0.090 0.363-0.209 0.544-0.358 0.544-0.646 0-1.734-0.065-3.264-0.194v0.998c1.471-0.060 2.429-0.090 2.876-0.090 0.268 0 0.402 0.313 0.402 0.939s-0.052 1.1-0.156 1.423c-0.105 0.323-0.246 0.484-0.424 0.484l-2.697-0.060v0.954c1.728-0.129 2.921-0.193 3.576-0.193 0.209 0 0.313 0.347 0.313 1.043s-0.045 1.222-0.134 1.58c-0.090 0.358-0.209 0.536-0.358 0.536h-0.001zM104.574 19.625c-0.020 0.288-0.172 0.487-0.455 0.596s-0.792 0.164-1.527 0.164c-0.735 0-1.348-0.067-1.84-0.201s-0.738-0.306-0.738-0.514c0-0.238 0.442-1.761 1.326-4.567s1.391-4.424 1.52-4.851c0.049-0.129 0.449-0.236 1.2-0.32s1.555-0.127 2.414-0.127 1.334 0.149 1.423 0.447c1.877 6.239 2.816 9.408 2.816 9.507s-0.060 0.199-0.178 0.298c-0.278 0.219-0.83 0.328-1.654 0.328-1.758 0-2.658-0.209-2.697-0.626l-0.105-0.969h-1.431l-0.074 0.834-0.001 0zM105.767 15.96l-0.223-2.682h-0.328l-0.253 2.683zM113.754 20.386h-1.080c-0.472 0-0.792-0.035-0.961-0.105s-0.253-0.178-0.253-0.328v-9.403c0-0.228 0.306-0.41 0.917-0.544s1.264-0.201 1.959-0.201c0.696 0 1.192 0.090 1.49 0.268s0.472 0.368 0.521 0.566l1.014 3.934h0.134l0.954-3.755c0.069-0.268 0.394-0.504 0.976-0.708s1.219-0.306 1.915-0.306c0.695 0 1.209 0.055 1.543 0.164s0.499 0.248 0.499 0.417v9.567c0 0.129-0.283 0.234-0.849 0.313s-1.257 0.119-2.072 0.119-1.222-0.144-1.222-0.432c0-0.785 0.085-2.18 0.253-4.188h-0.134l-0.775 3.889c-0.030 0.149-0.152 0.258-0.365 0.328s-0.534 0.105-0.961 0.105c-0.427 0-0.688-0.030-0.782-0.090s-0.156-0.174-0.186-0.343l-0.805-3.889h-0.134c0.178 2.047 0.268 3.442 0.268 4.188 0 0.258-0.621 0.402-1.863 0.432l-0 0.001z">
          </path>
          <path fill="#d41442" style="fill: var(--color1, #d41442)"
            d="M16 0.6c8.505 0 15.4 6.895 15.4 15.4s-6.895 15.4-15.4 15.4-15.4-6.895-15.4-15.4c0-8.505 6.895-15.4 15.4-15.4z">
          </path>
          <path fill="#d41442" style="fill: var(--color1, #d41442)"
            d="M16 0.6c8.505 0 15.4 6.895 15.4 15.4s-6.895 15.4-15.4 15.4c-8.505 0-15.4-6.895-15.4-15.4s6.895-15.4 15.4-15.4z">
          </path>
          <path fill="#d41442" style="fill: var(--color1, #d41442)"
            d="M21.279 20.529c-0.005 0.003-0.010 0.007-0.015 0.011zM7.375 13.361c0-4.86 3.94-8.8 8.8-8.8s8.8 3.94 8.8 8.8z">
          </path>
          <path fill="#d41442" style="fill: var(--color1, #d41442)"
            d="M22.882 7.661c-1.604 2.149-4.168 3.54-7.056 3.54-2.687 0-5.092-1.204-6.706-3.101zM24.933 12.493c0.028 0.17 0.043 0.343 0.043 0.516v1.773zM24.976 18.626v5.646c0 1.742-1.426 3.168-3.168 3.168h-11.264c-1.742 0-3.168-1.426-3.168-3.168v-5.632zM7.375 14.768v-1.76c0-0.175 0.015-0.347 0.043-0.516z">
          </path>
          <path fill="#d41442" style="fill: var(--color1, #d41442)"
            d="M17.393 18.64h-10.146c-0.994 0-1.807-0.813-1.807-1.807v-0.258c0-0.994 0.813-1.807 1.807-1.807h17.507c0.994 0 1.807 0.813 1.807 1.807v0.258c0 0.994-0.813 1.807-1.807 1.807h-3.489zM21.265 18.64v2.681c0 0.994-0.813 1.807-1.807 1.807h-0.258c-0.994 0-1.807-0.813-1.807-1.807v-2.681zM21.28 18.64v1.889z">
          </path>
          <path fill="#d41442" style="fill: var(--color1, #d41442)"
            d="M21.265 18.635h0.006v0.005h-0.006zM17.393 18.635h0.006v0.005h-0.006z"></path>
          <path fill="#d41442" style="fill: var(--color1, #d41442)" d="M20.576 27.44v3.523zM11.775 30.942v-3.501z">
          </path>
          <path fill="#d41442" style="fill: var(--color1, #d41442)"
            d="M9.714 30.649c-1.896-0.81-3.482-1.903-5.036-3.473-2.519-2.542-4.023-5.621-4.491-9.187-0.677-5.166 1.333-10.486 5.262-13.928 7.87-6.895 20.014-4.571 24.756 4.737 2.322 4.558 2.322 9.843-0 14.398-0.8 1.569-1.647 2.738-2.888 3.984-1.128 1.133-2.050 1.859-3.284 2.585-0.715 0.421-2.37 1.201-2.544 1.199-0.036-0-0.069-0.611-0.074-1.356l-0.008-1.356 0.476-0.001c1.441-0.003 2.762-0.827 3.48-2.171l0.364-0.682 0.028-3.064c0.015-1.685 0.064-3.064 0.107-3.064 0.169 0 1.055-0.888 1.25-1.252 0.173-0.323 0.206-0.535 0.206-1.32 0-1.124-0.141-1.456-0.919-2.167l-0.509-0.465-0.102-1.21c-0.132-1.562-0.372-2.466-0.991-3.735-2.886-5.912-10.745-7.227-15.398-2.577-1.848 1.846-2.697 3.888-2.919 7.017-0.019 0.274-0.107 0.387-0.57 0.739-0.643 0.488-1.050 1.015-1.194 1.548-0.152 0.563-0.060 1.709 0.174 2.165 0.232 0.451 0.886 1.075 1.31 1.25 0.29 0.12 0.305 0.15 0.315 0.652 0.111 5.372 0.117 5.457 0.371 5.999 0.594 1.262 1.89 2.182 3.266 2.317l0.702 0.069 0.017 1.38c0.012 1.007-0.013 1.379-0.094 1.378-0.061-0.001-0.538-0.185-1.061-0.408z">
          </path>
          <path fill="#d41442" style="fill: var(--color1, #d41442)"
            d="M13.889 10.063c-1.341-0.378-2.288-0.88-3.263-1.731-0.383-0.334-0.379-0.342 0.635-1.15 1.432-1.14 2.999-1.67 4.936-1.669 1.862 0.001 3.619 0.602 4.98 1.703l0.596 0.482-0.362 0.317c-1.127 0.986-2.182 1.596-3.45 1.998-0.512 0.162-0.941 0.215-1.965 0.241-1.163 0.030-1.399 0.009-2.108-0.191z">
          </path>
          <path fill="#d41442" style="fill: var(--color1, #d41442)"
            d="M8.236 13.167c0.034-0.373 0.124-0.994 0.201-1.38 0.143-0.721 0.634-2.109 0.776-2.198 0.044-0.027 0.389 0.185 0.766 0.472 0.863 0.656 2.318 1.373 3.352 1.652 0.698 0.188 1.007 0.214 2.526 0.21 1.482-0.004 1.838-0.034 2.479-0.209 1.085-0.297 2.667-1.117 3.641-1.887 0.459-0.363 0.863-0.66 0.897-0.66 0.084 0 0.693 1.333 0.875 1.918 0.195 0.624 0.338 1.562 0.339 2.222l0.001 0.538h-15.915z">
          </path>
          <path fill="#d41442" style="fill: var(--color1, #d41442)"
            d="M18.897 22.177c-0.103-0.042-0.271-0.17-0.374-0.284-0.172-0.191-0.189-0.362-0.216-2.163l-0.029-1.955-4.509-0.005c-5.537-0.006-6.92-0.073-7.194-0.347-0.278-0.278-0.339-1.028-0.106-1.315 0.151-0.187 0.304-0.227 1.156-0.305 0.565-0.052 4.512-0.079 9.304-0.065l8.322 0.025 0.222 0.327c0.29 0.427 0.245 1.033-0.103 1.38l-0.235 0.235-4.77 0.095-0.035 1.928c-0.023 1.271-0.073 1.996-0.148 2.129-0.186 0.331-0.853 0.496-1.286 0.319z">
          </path>
          <path fill="#d41442" style="fill: var(--color1, #d41442)"
            d="M11.6 26.485c-2.021-0.066-2.189-0.106-2.679-0.634-0.517-0.557-0.577-0.797-0.672-2.698-0.049-0.978-0.058-2.188-0.021-2.69l0.069-0.912h8.196l0.059 1.099c0.033 0.605 0.079 1.229 0.104 1.387 0.071 0.46 0.562 1.14 1.043 1.446 0.566 0.359 0.955 0.464 1.72 0.465 1.062 0.001 2.015-0.604 2.433-1.543 0.137-0.309 0.36-2.007 0.364-2.783 0.001-0.145 0.108-0.164 0.942-0.164h0.941l-0.057 5.286-0.281 0.561c-0.296 0.593-0.656 0.904-1.252 1.081-0.405 0.121-8.118 0.19-10.91 0.099z">
          </path>
          <path fill="#d41442" style="fill: var(--color1, #d41442)"
            d="M9.623 30.607c-1.875-0.811-3.392-1.862-4.946-3.429-1.249-1.259-2.094-2.424-2.888-3.982-3.683-7.225-1.353-15.98 5.461-20.521 2.825-1.882 6.277-2.784 9.837-2.57 4.922 0.297 9.553 3.012 12.264 7.191 3.454 5.325 3.454 12.075 0 17.4-1.306 2.013-3.101 3.741-5.206 5.011-0.718 0.434-2.441 1.256-2.629 1.256-0.058-0-0.097-0.52-0.102-1.356l-0.008-1.356 0.476-0.001c1.441-0.003 2.762-0.827 3.48-2.171l0.364-0.682 0.028-3.064c0.015-1.685 0.064-3.064 0.107-3.064 0.169 0 1.055-0.888 1.25-1.252 0.173-0.323 0.206-0.535 0.206-1.32 0-1.124-0.141-1.456-0.919-2.167l-0.509-0.465-0.102-1.21c-0.132-1.562-0.372-2.466-0.991-3.735-2.886-5.912-10.745-7.227-15.398-2.577-1.848 1.846-2.697 3.888-2.919 7.017-0.019 0.274-0.107 0.387-0.57 0.739-0.643 0.488-1.050 1.015-1.194 1.548-0.152 0.563-0.060 1.709 0.174 2.165 0.232 0.451 0.886 1.075 1.31 1.25 0.29 0.12 0.305 0.15 0.315 0.652 0.111 5.372 0.117 5.457 0.371 5.999 0.594 1.262 1.89 2.182 3.266 2.317l0.702 0.069 0.017 1.38c0.012 1.006-0.013 1.38-0.094 1.379-0.061-0-0.579-0.203-1.152-0.451z">
          </path>
          <path fill="#d41442" style="fill: var(--color1, #d41442)"
            d="M9.793 30.69c-1.867-0.777-3.488-1.886-5.068-3.467-1.338-1.338-2.155-2.477-2.988-4.163-2.281-4.618-2.266-9.587 0.042-14.22 2.503-5.024 7.542-8.383 13.097-8.731 2.706-0.169 5.129 0.247 7.549 1.296 5.739 2.489 9.533 8.321 9.522 14.635-0.011 6.232-3.721 11.94-9.437 14.518-0.494 0.223-0.94 0.405-0.992 0.405-0.058-0-0.097-0.52-0.102-1.356l-0.008-1.356 0.476-0.001c1.441-0.003 2.762-0.827 3.48-2.171l0.364-0.682 0.028-3.064c0.015-1.685 0.064-3.064 0.107-3.064 0.169 0 1.055-0.888 1.25-1.252 0.173-0.323 0.206-0.535 0.206-1.32 0-1.124-0.141-1.456-0.919-2.167l-0.509-0.465-0.102-1.21c-0.132-1.562-0.372-2.466-0.991-3.735-2.886-5.912-10.745-7.227-15.398-2.577-1.848 1.846-2.697 3.888-2.919 7.017-0.019 0.274-0.107 0.387-0.57 0.739-0.643 0.488-1.050 1.015-1.194 1.548-0.152 0.563-0.060 1.709 0.174 2.165 0.232 0.451 0.886 1.075 1.31 1.25 0.29 0.12 0.305 0.15 0.315 0.652 0.111 5.372 0.117 5.457 0.371 5.999 0.594 1.262 1.89 2.182 3.266 2.317l0.702 0.069 0.026 1.38c0.020 1.072-0.001 1.379-0.094 1.377-0.066-0.002-0.512-0.166-0.992-0.366z">
          </path>
          <path fill="#d41442" style="fill: var(--color1, #d41442)"
            d="M14.734 31.891c-0.992-0.079-2.885-0.432-2.409-0.449l0.257-0.009v-3.058l1.473-0.061c0.81-0.034 2.41-0.061 3.555-0.061l2.081-0v2.983l0.444 0.029c0.433 0.028 0.423 0.034-0.444 0.24-1.6 0.38-3.338 0.516-4.958 0.387z">
          </path>
          <path fill="#fff" style="fill: var(--color2, #fff)"
            d="M11.347 31.084c-0.229-0.134-0.275-0.393-0.275-1.566v-1.406l-0.667-0.002c-0.806-0.002-2.079-0.574-2.661-1.196-0.926-0.99-1.062-1.591-1.066-4.721l-0.003-2.856-0.61-0.343c-1.681-0.945-1.723-3.531-0.073-4.531 0.662-0.401 0.672-0.422 0.677-1.285 0.007-1.178 0.512-3.087 1.132-4.276 0.72-1.379 2.723-3.334 4.096-3.997 1.496-0.722 2.646-0.988 4.278-0.988 2.701 0 4.655 0.815 6.604 2.756 0.788 0.784 1.455 1.624 1.771 2.23 0.638 1.223 1.127 3.111 1.128 4.354 0 0.883 0.036 0.98 0.461 1.265 1.424 0.954 1.478 3.17 0.104 4.265l-0.566 0.452-0.003 2.905c-0.004 3.184-0.136 3.777-1.066 4.771-0.581 0.621-1.855 1.194-2.661 1.196l-0.667 0.002v1.329c0 1.448-0.126 1.655-1.011 1.655h-0.403v-2.984h-7.381v3.141l-0.432-0.005c-0.238-0.002-0.556-0.077-0.707-0.165zM22.998 26.39c0.415-0.212 0.71-0.524 0.936-0.992 0.297-0.613 0.331-0.959 0.331-3.382v-2.699h-2.172l-0.1 1.217c-0.145 1.767-0.202 1.935-0.877 2.578-0.774 0.737-1.717 0.923-2.724 0.539-1.281-0.489-1.666-1.203-1.666-3.088v-1.246h-8.638l0.003 2.788c0.002 2.595 0.027 2.83 0.353 3.4 0.688 1.201 0.646 1.194 7.697 1.194 5.906 0 6.285-0.016 6.857-0.309zM19.917 22.278c0.189-0.099 0.395-0.258 0.458-0.353s0.116-1.039 0.118-2.097l0.002-1.924h2.356c2.146 0 2.384-0.028 2.67-0.314 0.379-0.379 0.413-1.202 0.070-1.693l-0.244-0.349h-9.284c-10.481 0-9.859-0.075-9.859 1.193 0 1.182-0.104 1.162 6.317 1.162h5.619v1.952c0 1.921 0.006 1.957 0.414 2.277 0.467 0.367 0.861 0.409 1.363 0.145zM24.262 13.231c-0.001-0.41-0.107-1.189-0.234-1.731-0.236-1-0.929-2.549-1.141-2.549-0.064 0-0.504 0.321-0.979 0.713-3.562 2.946-8.398 2.962-12.124 0.042l-0.582-0.456-0.322 0.631c-0.413 0.809-0.786 2.395-0.789 3.35l-0.002 0.746h16.176l-0.002-0.746zM17.197 10.361c1.301-0.203 3.058-1.057 4.032-1.961l0.759-0.704-0.628-0.544c-1.357-1.175-3.173-1.809-5.183-1.809-2.11 0-3.915 0.665-5.365 1.977l-0.76 0.687 0.683 0.625c0.828 0.757 2.087 1.374 3.38 1.655 1.198 0.261 1.788 0.274 3.082 0.073z">
          </path>
          <path fill="#fff" style="fill: var(--color2, #fff)"
            d="M11.291 31.127c-0.283-0.139-0.358-0.2-0.32-0.26 0.027-0.043 0.050-0.655 0.050-1.361l0.001-1.283-0.597-0.032c-1.019-0.055-1.809-0.383-2.545-1.057-0.46-0.421-0.848-1.009-1.052-1.595l-0.164-0.471-0.033-5.694-0.426-0.207c-0.583-0.283-1.007-0.704-1.273-1.264-0.188-0.396-0.206-0.479-0.229-1.037-0.019-0.465-0.002-0.69 0.072-0.965 0.182-0.674 0.709-1.303 1.373-1.638 0.174-0.088 0.34-0.204 0.367-0.258s0.066-0.426 0.085-0.827c0.131-2.713 1.098-4.883 2.992-6.718 3.825-3.705 9.98-3.509 13.614 0.435 1.606 1.743 2.53 4.080 2.53 6.397 0 0.349 0.023 0.697 0.052 0.772s0.215 0.259 0.414 0.409c0.645 0.486 0.985 1.049 1.091 1.808 0.157 1.131-0.292 2.141-1.219 2.741l-0.331 0.214-0.036 5.776-0.15 0.444c-0.26 0.772-0.724 1.43-1.337 1.894-0.705 0.535-1.634 0.854-2.481 0.854h-0.393l0.012 2.638-0.379 0.182c-0.334 0.16-0.425 0.18-0.767 0.166l-0.389-0.015-0.030-2.971h-7.277l0.005 1.347c0.003 0.741 0.004 1.44 0.003 1.555l-0.003 0.208-0.43-0.004c-0.369-0.004-0.483-0.030-0.8-0.186zM22.305 26.551c0.706-0.121 1.261-0.53 1.566-1.153 0.286-0.585 0.308-0.832 0.309-3.535l0.001-2.485h-2.040l-0.041 0.458c-0.023 0.252-0.060 0.82-0.083 1.263-0.047 0.901-0.13 1.198-0.481 1.707-0.245 0.356-0.742 0.74-1.174 0.908-0.476 0.185-1.377 0.213-1.885 0.059-0.816-0.249-1.4-0.803-1.702-1.617-0.097-0.263-0.118-0.483-0.144-1.528l-0.030-1.222h-8.44l-0.015 2.082c-0.019 2.603 0.029 3.317 0.259 3.807 0.188 0.401 0.601 0.874 0.897 1.024 0.288 0.147 0.799 0.227 1.775 0.277 1.2 0.061 10.833 0.022 11.228-0.046zM19.851 22.246c0.311-0.152 0.452-0.298 0.505-0.521 0.027-0.115 0.066-1.039 0.086-2.055l0.037-1.846 2.17-0.001c1.194-0.001 2.268-0.024 2.388-0.052 0.48-0.111 0.721-0.465 0.721-1.058 0-0.442-0.175-0.847-0.433-1.004-0.168-0.102-0.412-0.105-8.169-0.104-9.454 0.001-10.352 0.031-10.732 0.359-0.141 0.121-0.152 0.163-0.167 0.648-0.028 0.868 0.146 1.048 1.111 1.154 0.341 0.037 2.426 0.059 5.673 0.059h5.134l0.018 1.902c0.016 1.654 0.030 1.924 0.112 2.072 0.094 0.171 0.399 0.413 0.656 0.521 0.192 0.080 0.655 0.042 0.888-0.072zM24.182 13.304c0-0.767-0.15-1.698-0.391-2.423-0.191-0.576-0.59-1.459-0.778-1.723-0.118-0.166-0.122-0.167-0.267-0.072-0.081 0.053-0.382 0.294-0.669 0.537-1.856 1.567-3.893 2.32-6.278 2.319-2.269-0.001-4.304-0.739-6.111-2.217-0.229-0.187-0.435-0.341-0.457-0.341-0.066-0-0.404 0.709-0.593 1.244-0.251 0.712-0.448 1.755-0.488 2.59l-0.034 0.719h16.064zM17.213 10.3c1.465-0.261 3.041-1.069 4.22-2.161l0.444-0.411-0.194-0.204c-0.528-0.554-1.609-1.245-2.462-1.576-2.511-0.972-5.547-0.645-7.627 0.822-0.474 0.335-1.405 1.158-1.405 1.244 0 0.103 0.82 0.807 1.319 1.133 0.98 0.639 2.259 1.090 3.567 1.256 0.369 0.047 1.639-0.014 2.138-0.103z">
          </path>
          <path fill="#fff" style="fill: var(--color2, #fff)"
            d="M11.294 31.143l-0.367-0.167 0.048-0.267c0.027-0.147 0.042-0.763 0.033-1.371l-0.015-1.104-0.583-0.037c-1.082-0.069-1.894-0.431-2.642-1.18-0.485-0.485-0.753-0.912-0.989-1.577l-0.144-0.406v-2.181c0-1.2-0.016-2.479-0.036-2.843l-0.036-0.662-0.368-0.175c-0.667-0.318-1.156-0.867-1.389-1.56-0.145-0.431-0.159-1.288-0.027-1.738 0.185-0.635 0.634-1.192 1.259-1.563 0.208-0.124 0.412-0.272 0.452-0.329 0.042-0.060 0.077-0.285 0.083-0.534 0.036-1.504 0.421-3.125 1.031-4.34 0.777-1.547 2.107-3.005 3.542-3.882 2.769-1.693 6.152-1.894 9.065-0.538 2.585 1.203 4.537 3.567 5.244 6.35 0.175 0.69 0.23 1.094 0.278 2.064 0.025 0.504 0.062 0.955 0.081 1.002s0.197 0.207 0.393 0.355c0.612 0.463 0.916 0.941 1.069 1.685 0.073 0.355 0.078 0.512 0.027 0.919-0.106 0.851-0.503 1.483-1.247 1.99l-0.319 0.217v2.78c0 3.145 0.005 3.102-0.427 3.982-0.2 0.407-0.346 0.612-0.677 0.949-0.753 0.767-1.602 1.149-2.688 1.209l-0.599 0.033 0.018 2.621-0.354 0.177c-0.303 0.151-0.415 0.177-0.784 0.18l-0.43 0.004v-2.999l-7.246 0.029-0.010 1.333c-0.005 0.733-0.012 1.426-0.014 1.541l-0.004 0.208-0.43-0.004c-0.357-0.002-0.493-0.032-0.797-0.17zM22.086 26.543c1.106-0.096 1.79-0.743 2.012-1.903 0.062-0.323 0.076-0.934 0.068-2.823l-0.011-2.411-0.968-0.015c-0.532-0.009-0.987 0.004-1.011 0.028s-0.071 0.518-0.103 1.098-0.087 1.192-0.12 1.36c-0.148 0.751-0.679 1.412-1.419 1.764-0.404 0.193-0.472 0.207-1.055 0.226-0.744 0.024-1.189-0.086-1.712-0.424-0.356-0.23-0.556-0.44-0.773-0.81-0.298-0.509-0.325-0.653-0.358-1.951l-0.032-1.222-8.4-0.029-0.042 0.93c-0.051 1.139 0.006 3.92 0.090 4.374 0.086 0.464 0.307 0.887 0.644 1.233 0.321 0.33 0.505 0.423 1.023 0.522 0.68 0.129 10.78 0.171 12.168 0.050zM19.9 22.192c0.446-0.222 0.454-0.248 0.508-1.654 0.026-0.684 0.049-1.572 0.051-1.974l0.002-0.73 2.29-0.019c2.191-0.019 2.3-0.024 2.51-0.135 0.628-0.329 0.647-1.546 0.030-1.956l-0.194-0.129-8.524 0.024c-8.839 0.025-9.486 0.042-9.972 0.257-0.205 0.091-0.248 0.14-0.304 0.346-0.076 0.282-0.042 0.895 0.062 1.119 0.094 0.2 0.278 0.294 0.723 0.368 0.56 0.093 1.266 0.105 6.339 0.11l4.761 0.004 0.003 1.374c0.002 0.756 0.022 1.643 0.045 1.97 0.037 0.523 0.058 0.614 0.177 0.741 0.443 0.474 0.922 0.565 1.49 0.283zM24.163 13.146c-0.055-1.21-0.269-2.12-0.744-3.163-0.281-0.617-0.465-0.932-0.545-0.932-0.075 0-0.195 0.089-0.861 0.641-1.996 1.651-4.283 2.397-6.864 2.237-1.984-0.123-3.858-0.88-5.498-2.22-0.227-0.185-0.42-0.328-0.43-0.317s-0.118 0.22-0.24 0.464c-0.454 0.909-0.741 2.108-0.82 3.429l-0.039 0.652h16.078zM17.099 10.296c1.006-0.15 2.28-0.665 3.246-1.312 0.516-0.346 0.651-0.456 1.137-0.925l0.382-0.369-0.326-0.295c-0.664-0.601-1.706-1.223-2.567-1.532-0.542-0.195-1.623-0.404-2.319-0.45-1.537-0.1-3.286 0.31-4.595 1.076-0.448 0.262-1.285 0.929-1.662 1.323l-0.211 0.221 0.402 0.373c0.46 0.426 1.11 0.871 1.712 1.171 0.78 0.39 2.148 0.766 2.973 0.818 0.434 0.027 1.285-0.020 1.83-0.101z">
          </path>
          <path fill="#fff" style="fill: var(--color2, #fff)"
            d="M11.336 31.173l-0.358-0.161-0.032-2.806-0.726-0.066c-1.371-0.124-2.616-0.968-3.204-2.171-0.328-0.671-0.406-1.525-0.415-4.56l-0.006-2.026-0.503-0.284c-0.92-0.519-1.368-1.306-1.368-2.403 0-1.020 0.374-1.717 1.233-2.301 0.597-0.406 0.601-0.414 0.678-1.579 0.103-1.56 0.671-3.326 1.455-4.526 0.531-0.813 1.595-1.963 2.364-2.555 1.151-0.886 2.757-1.561 4.302-1.809 0.976-0.156 2.79-0.068 3.813 0.186 2.629 0.651 5.068 2.703 6.273 5.279 0.494 1.055 0.738 2.046 0.862 3.503l0.107 1.247 0.451 0.377c0.551 0.462 0.872 0.994 0.987 1.639 0.185 1.034-0.187 2.062-0.973 2.692l-0.469 0.376-0.062 2.921c-0.055 2.555-0.085 2.986-0.245 3.44-0.516 1.469-2.069 2.573-3.62 2.573h-0.505v2.685l-0.351 0.151c-0.363 0.156-0.544 0.187-0.982 0.169l-0.257-0.011v-3.006l-7.203 0.045v3.148l-0.444-0.002c-0.244-0.001-0.606-0.075-0.803-0.164zM22.551 26.464c0.555-0.14 1.241-0.781 1.439-1.345 0.097-0.277 0.141-1.072 0.168-3.064l0.037-2.69h-2.042l-0.11 1.318c-0.123 1.471-0.239 1.839-0.742 2.365-0.525 0.548-1.147 0.806-1.937 0.802-1.011-0.005-1.73-0.334-2.209-1.011-0.364-0.514-0.438-0.829-0.511-2.16l-0.066-1.221-1.507-0.012c-0.829-0.006-2.717-0.025-4.197-0.041l-2.69-0.029 0.001 2.59c0 1.474 0.042 2.738 0.096 2.934 0.149 0.536 0.657 1.212 1.069 1.423 0.309 0.158 0.629 0.2 1.918 0.252 2.553 0.103 10.753 0.021 11.282-0.112zM20.054 22.102c0.309-0.23 0.365-0.631 0.378-2.699l0.009-1.505 2.302-0.064c1.728-0.048 2.368-0.098 2.565-0.2 0.502-0.26 0.588-1.163 0.167-1.755l-0.189-0.266-9.041 0.036c-8.941 0.036-9.583 0.059-9.871 0.346-0.059 0.059-0.102 0.38-0.099 0.723 0.011 0.998 0.051 1.012 3.174 1.1 0.978 0.027 3.342 0.050 5.255 0.050l3.478 0.001 0.061 3.85 0.361 0.331c0.328 0.301 0.4 0.327 0.782 0.284 0.232-0.026 0.532-0.13 0.668-0.231zM24.152 12.974c-0.036-0.592-0.15-1.28-0.296-1.781-0.262-0.904-0.834-2.118-0.998-2.118-0.058 0-0.384 0.225-0.724 0.5-1.273 1.028-2.329 1.605-3.627 1.981-3.017 0.874-6.147 0.245-8.711-1.751l-0.588-0.457-0.275 0.589c-0.401 0.857-0.66 1.952-0.721 3.044l-0.053 0.959h16.052zM18.232 10.008c1.057-0.355 2.232-1.033 3.058-1.763l0.568-0.502-0.264-0.279c-0.376-0.398-1.239-0.969-2.035-1.348-1.947-0.925-4.811-0.909-6.801 0.038-1.165 0.554-2.587 1.659-2.483 1.93 0.095 0.248 1.221 1.074 1.987 1.457 0.415 0.208 1.152 0.483 1.637 0.612 0.78 0.207 1.030 0.23 2.146 0.2 1.131-0.030 1.359-0.066 2.188-0.345z">
          </path>
          <path fill="#fff" style="fill: var(--color2, #fff)"
            d="M11.333 31.172l-0.36-0.162 0.014-1.376c0.016-1.573 0.115-1.418-0.969-1.511-1.163-0.1-2.516-1.077-3.023-2.183-0.314-0.685-0.384-1.467-0.393-4.344l-0.007-2.213-0.503-0.284c-0.92-0.519-1.368-1.306-1.368-2.403 0-1.014 0.383-1.726 1.249-2.322 0.574-0.396 0.57-0.384 0.666-1.654 0.114-1.504 0.691-3.265 1.451-4.43 0.531-0.813 1.595-1.963 2.364-2.555 1.151-0.886 2.757-1.561 4.302-1.809 0.975-0.156 2.791-0.068 3.803 0.185 2.662 0.665 5.070 2.688 6.283 5.28 0.559 1.194 0.927 2.891 0.93 4.28 0.001 0.408 0.030 0.458 0.51 0.868 0.696 0.594 1.006 1.238 1.006 2.086-0 1.025-0.368 1.788-1.126 2.332l-0.359 0.258-0.056 2.916c-0.050 2.58-0.078 2.977-0.242 3.445-0.52 1.479-2.068 2.583-3.623 2.583h-0.505v2.685l-0.351 0.151c-0.363 0.156-0.544 0.187-0.982 0.169l-0.257-0.011v-3.011l-2.643 0.020c-1.454 0.011-3.074 0.042-3.602 0.069l-0.959 0.050v3.059l-0.444-0.002c-0.244-0.001-0.607-0.075-0.805-0.164zM21.852 26.532c1.103-0.059 1.655-0.412 2.064-1.322 0.198-0.44 0.212-0.617 0.25-3.159l0.040-2.693-2.034 0.053-0.113 1.251c-0.138 1.518-0.223 1.795-0.718 2.334-0.531 0.578-1.158 0.857-1.929 0.858-0.753 0-1.172-0.112-1.673-0.449-0.792-0.532-1.009-1.075-1.097-2.735l-0.064-1.211-3.143-0.007c-1.729-0.004-3.62-0.022-4.203-0.041l-1.060-0.034 0.031 2.777c0.029 2.63 0.041 2.797 0.232 3.151 0.11 0.206 0.31 0.492 0.444 0.636 0.46 0.495 0.771 0.561 2.91 0.62 2.049 0.056 8.835 0.037 10.064-0.029zM19.828 22.226c0.505-0.211 0.546-0.379 0.594-2.452l0.043-1.883 2.256-0.063c1.241-0.035 2.363-0.104 2.493-0.155 0.519-0.2 0.684-0.939 0.354-1.583l-0.216-0.421-8.747 0c-4.811 0-9.031 0.035-9.379 0.078s-0.695 0.14-0.772 0.217c-0.162 0.162-0.194 1.159-0.047 1.434 0.176 0.329 0.894 0.379 6.416 0.44l5.356 0.060 0.032 1.895c0.031 1.872 0.034 1.898 0.265 2.147 0.399 0.429 0.804 0.515 1.352 0.286zM24.151 13.021c-0.033-0.505-0.143-1.243-0.245-1.64-0.195-0.761-0.87-2.306-1.008-2.306-0.045 0-0.5 0.318-1.012 0.707-1.163 0.883-2.516 1.563-3.737 1.877-0.763 0.197-1.169 0.243-2.198 0.251-2.274 0.018-4.157-0.599-5.946-1.948l-0.802-0.605-0.269 0.593c-0.389 0.857-0.665 2.032-0.724 3.078l-0.051 0.912h16.052zM17.775 10.159c0.851-0.227 2.389-1.023 3.153-1.632 1.015-0.808 0.999-0.767 0.474-1.231-1.46-1.29-3.507-1.953-5.686-1.842-2.029 0.103-3.89 0.904-5.145 2.216l-0.374 0.391 0.374 0.332c0.94 0.834 2.171 1.471 3.49 1.806 0.876 0.222 2.808 0.202 3.714-0.040z">
          </path>
          <path fill="#fff" style="fill: var(--color2, #fff)"
            d="M11.333 31.172l-0.36-0.162 0.028-2.748-0.308-0.047c-0.17-0.026-0.518-0.071-0.774-0.1-1.121-0.127-2.432-1.102-2.922-2.173-0.317-0.693-0.388-1.459-0.395-4.296l-0.006-2.255-0.535-0.317c-0.616-0.365-1.098-0.948-1.25-1.514-0.059-0.216-0.088-0.714-0.066-1.106 0.054-0.936 0.339-1.438 1.156-2.030 0.534-0.387 0.601-0.472 0.639-0.81 0.264-2.315 0.334-2.651 0.808-3.881 0.535-1.387 1.843-3.051 3.217-4.093 0.72-0.546 2.206-1.251 3.234-1.536 0.702-0.194 0.988-0.22 2.432-0.214 1.871 0.008 2.516 0.136 3.873 0.772 3.457 1.62 5.669 5.102 5.669 8.924 0 0.424 0.029 0.476 0.558 0.989 0.686 0.665 0.951 1.221 0.959 2.012 0.011 1.045-0.366 1.838-1.131 2.382l-0.358 0.255-0.051 2.9c-0.057 3.252-0.106 3.537-0.77 4.441-0.681 0.928-1.953 1.593-3.046 1.593h-0.557v2.723l-0.304 0.126c-0.316 0.131-0.591 0.173-1.029 0.155l-0.257-0.010v-2.994h-0.92c-0.506 0-2.127 0.028-3.602 0.062l-2.681 0.062v3.057l-0.444-0.002c-0.244-0.001-0.607-0.075-0.805-0.164zM22.392 26.481c0.613-0.118 1.136-0.535 1.455-1.159l0.274-0.537 0.087-5.428-2.037 0.053-0.113 1.263c-0.136 1.519-0.273 1.913-0.853 2.455-0.622 0.582-1.141 0.761-2.049 0.707-0.833-0.050-1.332-0.262-1.838-0.783-0.459-0.472-0.611-1.007-0.681-2.395l-0.061-1.196-8.405-0.050 0.031 2.713c0.028 2.519 0.045 2.743 0.226 3.134 0.246 0.53 0.866 1.096 1.272 1.162 0.17 0.028 0.415 0.066 0.543 0.086 0.481 0.074 11.757 0.050 12.148-0.026zM20.018 22.117c0.121-0.079 0.246-0.214 0.279-0.299s0.085-1.009 0.116-2.053l0.057-1.897 0.804-0.009c0.442-0.005 1.506-0.037 2.363-0.070 1.459-0.057 1.574-0.075 1.79-0.278 0.127-0.119 0.257-0.346 0.288-0.504 0.073-0.367-0.088-0.967-0.322-1.202-0.177-0.178-0.368-0.182-7.456-0.176-4 0.004-8.142 0.037-9.203 0.075-2.382 0.085-2.421 0.101-2.419 0.973 0.003 1.055-0.098 1.026 3.881 1.108 1.801 0.037 4.332 0.071 5.626 0.075l2.351 0.007 0.036 1.906c0.039 2.062 0.041 2.070 0.594 2.417 0.319 0.2 0.845 0.168 1.215-0.074zM24.148 13.074c-0.071-0.984-0.252-1.847-0.544-2.596-0.285-0.729-0.628-1.403-0.714-1.403-0.040 0-0.492 0.316-1.004 0.703-1.407 1.063-2.647 1.661-4.065 1.96-2.704 0.57-5.494-0.050-7.75-1.723-0.42-0.312-0.803-0.567-0.851-0.567-0.111 0-0.621 1.321-0.804 2.081-0.077 0.322-0.168 0.996-0.2 1.497l-0.060 0.912h16.053zM17.775 10.145c1.15-0.309 2.6-1.109 3.595-1.983 0.285-0.25 0.396-0.411 0.356-0.516-0.098-0.255-1.101-0.985-1.892-1.378-2.416-1.199-5.518-1.089-7.811 0.275-0.609 0.362-1.777 1.352-1.777 1.505 0 0.158 1.178 1.033 1.871 1.389 0.722 0.371 1.617 0.696 2.345 0.851 0.588 0.125 2.648 0.035 3.315-0.144z">
          </path>
          <path fill="#fff" style="fill: var(--color2, #fff)"
            d="M11.333 31.172l-0.36-0.162 0.028-2.741-0.355-0.051c-0.195-0.028-0.547-0.075-0.782-0.106-1.085-0.139-2.388-1.125-2.865-2.167-0.321-0.702-0.391-1.452-0.398-4.253l-0.005-2.302-0.535-0.317c-0.616-0.365-1.098-0.948-1.25-1.514-0.059-0.216-0.088-0.714-0.066-1.106 0.047-0.827 0.327-1.408 0.885-1.835 0.896-0.687 0.873-0.648 0.97-1.615 0.28-2.784 1.007-4.436 2.749-6.253 0.924-0.963 1.637-1.482 2.78-2.022 1.49-0.704 2.192-0.848 4.102-0.838 1.883 0.009 2.578 0.149 3.909 0.786 1.085 0.519 1.724 0.961 2.607 1.807 1.172 1.122 2.002 2.425 2.512 3.944 0.267 0.796 0.512 2.261 0.512 3.071 0.001 0.535 0.006 0.546 0.515 1.019 0.726 0.676 1.014 1.301 1.008 2.191-0.006 0.91-0.306 1.548-1.016 2.161l-0.507 0.438-0.004 2.11c-0.006 2.93-0.095 3.894-0.425 4.568-0.591 1.209-1.895 2.076-3.243 2.154l-0.725 0.042v2.698l-0.304 0.126c-0.316 0.131-0.591 0.173-1.029 0.155l-0.257-0.010v-3.023l-2.175 0.061c-1.196 0.034-2.817 0.062-3.602 0.062l-1.427 0v3.087l-0.444-0.002c-0.244-0.001-0.607-0.075-0.805-0.164zM22.265 26.475c0.755-0.124 1.233-0.471 1.58-1.148l0.272-0.532 0.092-5.436-2.038 0.053-0.113 1.263c-0.136 1.519-0.273 1.913-0.853 2.455-0.622 0.582-1.141 0.761-2.049 0.707-0.833-0.050-1.332-0.262-1.838-0.783-0.463-0.476-0.617-1.017-0.684-2.402l-0.058-1.193h-8.41l0.033 2.69c0.032 2.583 0.042 2.707 0.249 3.128 0.318 0.648 0.838 1.078 1.39 1.151 0.248 0.033 0.515 0.073 0.592 0.090 0.369 0.079 11.334 0.041 11.834-0.041zM19.791 22.205c0.239-0.096 0.417-0.241 0.471-0.384 0.048-0.127 0.115-1.062 0.147-2.078l0.060-1.847 1.178-0.060c0.648-0.033 1.641-0.064 2.207-0.070 1.224-0.012 1.421-0.057 1.667-0.386 0.361-0.483 0.137-1.571-0.35-1.702-0.283-0.076-13.354-0.054-16.063 0.028-2.802 0.084-2.795 0.081-2.793 0.972 0.002 0.674 0.043 0.764 0.421 0.919 0.28 0.115 4.907 0.244 9.411 0.263l2.022 0.008 0.044 1.913c0.048 2.062 0.051 2.076 0.589 2.405 0.346 0.211 0.499 0.214 0.988 0.019zM24.142 13.040c-0.077-1.054-0.303-2.001-0.705-2.953-0.491-1.164-0.404-1.145-1.518-0.322-0.53 0.392-1.322 0.898-1.759 1.124-3.251 1.681-7.096 1.345-10.1-0.882-0.896-0.665-0.874-0.67-1.262 0.317-0.327 0.832-0.505 1.676-0.58 2.75l-0.060 0.865h16.051zM17.614 10.182c1.164-0.289 2.726-1.117 3.661-1.941 0.357-0.314 0.489-0.492 0.448-0.6-0.087-0.226-1.234-1.043-1.984-1.413-1.109-0.547-2.046-0.743-3.555-0.746-1.864-0.003-3.115 0.352-4.46 1.264-0.618 0.419-1.48 1.179-1.48 1.304 0 0.128 1.149 0.991 1.784 1.34 0.715 0.393 1.478 0.674 2.333 0.858 0.694 0.15 2.533 0.113 3.254-0.066z">
          </path>
          <path fill="#fff" style="fill: var(--color2, #fff)"
            d="M11.333 31.172l-0.36-0.162 0.028-2.744-0.542-0.062c-1.226-0.141-1.965-0.474-2.714-1.223-0.616-0.616-0.961-1.338-1.064-2.225-0.043-0.367-0.079-1.726-0.081-3.020l-0.004-2.353-0.5-0.282c-0.576-0.325-0.949-0.731-1.209-1.317-0.149-0.336-0.176-0.562-0.144-1.223 0.045-0.933 0.3-1.491 0.888-1.942 0.899-0.69 0.866-0.629 0.976-1.756 0.254-2.584 1.055-4.369 2.742-6.114 0.935-0.967 1.648-1.485 2.795-2.028 1.497-0.709 2.086-0.83 4.042-0.827 1.435 0.002 1.794 0.032 2.432 0.207 0.854 0.233 2.052 0.782 2.834 1.299 0.719 0.475 1.883 1.597 2.448 2.36 1.042 1.405 1.734 3.374 1.843 5.241l0.058 0.985 0.552 0.58c0.725 0.762 0.951 1.277 0.945 2.157-0.006 0.894-0.31 1.537-1.015 2.147l-0.507 0.438-0.003 2.204c-0.004 3.771-0.153 4.475-1.161 5.484-0.693 0.694-1.556 1.090-2.491 1.144l-0.742 0.043v2.698l-0.304 0.126c-0.316 0.131-0.591 0.173-1.029 0.155l-0.257-0.010v-3.023l-1.754 0.061c-0.965 0.034-2.585 0.061-3.602 0.062l-1.848 0v3.087l-0.444-0.002c-0.244-0.001-0.607-0.075-0.805-0.164zM22.782 26.371c0.452-0.206 0.927-0.701 1.145-1.194 0.162-0.366 0.188-0.709 0.233-3.115l0.051-2.704-2.039 0.053-0.11 1.279c-0.128 1.494-0.279 1.913-0.888 2.472-0.602 0.552-1.125 0.727-2.022 0.675-1.183-0.069-1.999-0.631-2.337-1.61-0.073-0.211-0.156-0.92-0.185-1.576l-0.053-1.193h-8.412l0.040 2.69c0.043 2.908 0.063 3.031 0.586 3.652 0.338 0.401 0.726 0.595 1.36 0.68 0.283 0.038 3.167 0.063 6.408 0.055 5.194-0.012 5.933-0.032 6.224-0.164zM19.771 22.213c0.202-0.081 0.409-0.246 0.467-0.372 0.057-0.125 0.132-1.069 0.168-2.1l0.064-1.873 0.29-0.007c0.159-0.004 1.231-0.038 2.383-0.074l2.093-0.067 0.232-0.27c0.204-0.238 0.227-0.337 0.192-0.828-0.034-0.465-0.083-0.595-0.296-0.778l-0.256-0.22-6.52 0.007c-3.586 0.004-7.705 0.038-9.153 0.076-3.175 0.084-3.12 0.067-3.12 0.981 0 0.47 0.038 0.626 0.185 0.758 0.264 0.239 1.241 0.319 3.987 0.325 1.291 0.003 3.548 0.033 5.015 0.067l2.668 0.062 0.048 1.855c0.053 2.051 0.1 2.224 0.663 2.47 0.383 0.166 0.454 0.166 0.89-0.009zM24.144 13.12c-0.088-1.115-0.266-1.924-0.614-2.797-0.34-0.852-0.52-1.156-0.684-1.156-0.065 0-0.516 0.297-1.003 0.659-1.096 0.815-2.674 1.598-3.786 1.879-1.25 0.316-3.28 0.297-4.563-0.042-1.141-0.301-2.419-0.906-3.371-1.594-0.402-0.291-0.786-0.528-0.853-0.528-0.331 0-0.945 2.067-1.049 3.532l-0.061 0.865h16.050zM16.812 10.289c0.946-0.108 1.897-0.425 2.864-0.954 0.825-0.451 2.075-1.425 2.075-1.617 0-0.231-1.022-0.967-2.011-1.449-1.213-0.591-2.114-0.791-3.555-0.791-2.215 0-3.97 0.668-5.473 2.084l-0.515 0.485 0.327 0.288c0.869 0.765 2.028 1.405 3.12 1.722 1.127 0.328 1.866 0.382 3.167 0.233z">
          </path>
        </symbol>
      </defs>
    </svg>

    <symbol id="icon-arrow-right-button" viewBox="0 0 32 32">
      <path fill="none" stroke="#d41443" style="stroke: var(--color1, #d41443)" stroke-linejoin="round"
        stroke-linecap="round" stroke-miterlimit="4" stroke-width="6.4" d="M9.6 3.2l12.8 12.8-12.8 12.8"></path>
    </symbol>
    <symbol id="icon-burger" viewBox="0 0 32 32">
      <path fill="none" stroke="#d41443" style="stroke: var(--color1, #d41443)" stroke-linejoin="miter"
        stroke-linecap="butt" stroke-miterlimit="4" stroke-width="1.6" d="M0 6.4h32M0 16h32M0 25.6h32"></path>
    </symbol>
    <symbol id="icon-home-feedback" viewBox="0 0 32 32">
      <path fill="#d31342"
        d="M31.618 15.643c0.237-0.258 0.382-0.603 0.382-0.983 0-0.438-0.194-0.832-0.501-1.098l-0.002-0.002-13.637-11.931c-0.293-0.248-0.676-0.399-1.093-0.399-0.431 0-0.824 0.16-1.124 0.425l0.002-0.002-13.681 12.544c-0.292 0.266-0.474 0.647-0.474 1.071 0 0.391 0.155 0.746 0.408 1.007l-0-0 0.345 0.357c0.566 0.591 1.487 0.665 2.053 0.158l1.022-0.916v13.406c0 0.825 0.665 1.489 1.489 1.489h5.329c0.822 0 1.489-0.665 1.489-1.489v-9.378h6.806v9.378c-0.012 0.822 0.576 1.489 1.398 1.489h5.652c0.822 0 1.487-0.665 1.487-1.489v-13.218l0.633 0.556c0.347 0.305 1.078 0.059 1.63-0.549l0.389-0.426z">
      </path>
    </symbol>

    <symbol id="icon-close" viewBox="0 0 32 32">
      <path fill="none" stroke="#fff" style="stroke: var(--color1, #fff)" stroke-linejoin="miter" stroke-linecap="butt"
        stroke-miterlimit="4" stroke-width="2" d="M2.52 2l26.96 28M2 29.48l28-26.96"></path>
    </symbol>

    <symbol id="icon-double-quotes-bg" viewBox="0 0 43 32" fill="#E1E1E1">
      <path
        d="M32.014 0c1.929 0 3.75 0.52 5.464 1.561s3.107 2.537 4.179 4.488c1.029 1.951 1.543 4.249 1.543 6.894s-0.643 5.225-1.929 7.74c-0.429 0.911-1.2 2.081-2.314 3.512-1.157 1.431-2.229 2.667-3.214 3.707l-4.050 4.098-2.893-4.813c2.014-1.257 3.793-2.818 5.336-4.683 1.543-1.821 2.314-3.491 2.314-5.008 0-0.78-0.171-1.409-0.514-1.886-1.5 1.084-3.171 1.626-5.014 1.626-1.329 0-2.593-0.412-3.793-1.236-1.243-0.78-2.229-1.821-2.957-3.122-0.771-1.258-1.157-2.558-1.157-3.902 0-1.518 0.45-2.97 1.35-4.358 0.857-1.388 1.993-2.515 3.407-3.382 1.371-0.824 2.786-1.236 4.243-1.236zM8.936 0c1.929 0 3.75 0.52 5.464 1.561s3.107 2.537 4.179 4.488c1.029 1.951 1.543 4.249 1.543 6.894 0 1.864-0.236 3.534-0.707 5.008-0.471 1.518-1.286 3.1-2.443 4.748-1.114 1.561-2.164 2.862-3.15 3.902-0.986 1.084-2.7 2.884-5.143 5.398l-2.893-4.813c2.014-1.257 3.793-2.818 5.336-4.683 1.543-1.821 2.314-3.491 2.314-5.008 0-0.78-0.171-1.409-0.514-1.886-1.5 1.084-3.171 1.626-5.014 1.626-1.329 0-2.593-0.412-3.793-1.236-1.243-0.78-2.229-1.821-2.957-3.122-0.771-1.258-1.157-2.558-1.157-3.902 0-1.518 0.429-2.97 1.286-4.358s1.993-2.515 3.407-3.382c1.371-0.824 2.786-1.236 4.243-1.236z">
      </path>
    </symbol>

    <symbol id="icon-ellipse-feedback" viewBox="0 0 32 32">
      <path fill="#d9d9d9" d="M32 16c0 8.837-7.163 16-16 16s-16-7.163-16-16c0-8.837 7.163-16 16-16s16 7.163 16 16z">
      </path>
    </symbol>

    <symbol id="icon-arrow-right" viewBox="0 0 32 32">
      <path fill="#fff" style="fill: var(--color1, #fff)"
        d="M16 0c8.837 0 16 7.163 16 16s-7.163 16-16 16c-8.837 0-16-7.163-16-16s7.163-16 16-16z"></path>
      <path fill="#d7224d" style="fill: var(--color2, #d7224d)"
        d="M12.8 15.248h-0.8v1.6h0.8v-1.6zM19.648 16.848c0.442 0 0.8-0.358 0.8-0.8s-0.358-0.8-0.8-0.8v0 1.6zM12.8 16.848h6.848v-1.6h-6.848v1.6z">
      </path>
      <path fill="none" stroke="#d7224d" style="stroke: var(--color2, #d7224d)" stroke-linejoin="miter"
        stroke-linecap="round" stroke-miterlimit="4" stroke-width="1.568" d="M16.8 12.8l3.2 3.2-3.2 3.2"></path>
    </symbol>

    <symbol id="icon-facebook" viewBox="0 0 32 32">
      <path fill="#FEA5BB"
        d="M20.446 15.981h-2.611v9.619h-3.955v-9.619h-1.88v-3.379h1.88v-2.187c0-1.564 0.739-4.014 3.991-4.014l2.929 0.012v3.281h-2.125c-0.348 0-0.839 0.176-0.839 0.922v1.989h2.955l-0.345 3.377z">
      </path>
    </symbol>
    <symbol id="icon-github" viewBox="0 0 32 32">
      <path fill="#FEA5BB"
        d="M16 6.588c-5.17 0-9.412 4.242-9.412 9.412 0 4.411 3.096 8.419 7.206 9.412v-3.113c-0.408 0.088-0.781 0.091-1.196-0.031-0.556-0.164-1.008-0.535-1.344-1.099-0.214-0.36-0.593-0.753-0.988-0.724l-0.097-1.098c0.856-0.073 1.594 0.521 2.033 1.258 0.196 0.328 0.421 0.52 0.709 0.605 0.278 0.083 0.577 0.043 0.925-0.080 0.088-0.697 0.408-0.958 0.649-1.327-2.452-0.365-3.429-1.666-3.816-2.692-0.514-1.364-0.238-3.066 0.67-4.143 0.018-0.021 0.050-0.075 0.038-0.113-0.417-1.259 0.090-2.3 0.109-2.41 0.481 0.141 0.559-0.143 2.089 0.786l0.264 0.159c0.111 0.066 0.075 0.028 0.186 0.019 0.59-0.166 1.269-0.266 1.97-0.276l0.006-0c0.668 0.008 1.336 0.104 2.002 0.284l0.086 0.009c-0.008-0.002 0.024-0.006 0.075-0.037 1.911-1.158 1.842-0.779 2.355-0.946 0.019 0.111 0.519 1.169 0.106 2.411-0.056 0.171 1.656 1.739 0.708 4.256-0.388 1.026-1.365 2.328-3.816 2.693 0.314 0.48 0.692 0.734 0.69 1.722v3.886c4.109-0.993 7.206-5 7.206-9.412 0-5.17-4.242-9.412-9.412-9.412z">
      </path>
    </symbol>

    <symbol id="icon-telegram" viewBox="0 0 32 32">
      <path fill="#FEA5BB"
        d="M12.867 18.376l-0.317 4.169c0.455 0 0.651-0.183 0.888-0.401l2.13-1.901 4.414 3.018c0.81 0.421 1.381 0.199 1.6-0.696l2.897-12.673c0.258-1.117-0.433-1.554-1.221-1.28l-17.032 6.086c-1.162 0.422-1.145 1.026-0.198 1.301l4.355 1.264 10.114-5.907c0.476-0.295 0.909-0.132 0.553 0.163l-8.182 6.856z">
      </path>
    </symbol>


    <symbol id="icon-apples" viewBox="0 0 31 32">
      <path fill="#ffa5ba" style="fill: var(--color1, #ffa5ba)"
        d="M21.507 31.937c-0.049-0.013-0.227-0.054-0.395-0.093-0.404-0.094-0.767-0.332-1.278-0.837l-0.413-0.408-0.046 0.176c-0.040 0.151-0.186 0.896-0.186 0.946 0 0.009-3.482 0.017-7.737 0.017-7.329 0-7.738-0.004-7.762-0.079-0.066-0.208-0.463-2.466-2.497-14.187-1.247-7.184-1.175-6.731-1.116-7.008 0.038-0.183 0.035-0.329-0.015-0.653-0.039-0.248-0.064-0.718-0.062-1.16 0.003-0.706 0.010-0.762 0.14-1.133 0.196-0.563 0.481-1.033 0.885-1.461 0.424-0.449 0.654-0.623 1.151-0.871 0.462-0.23 1.043-0.382 1.681-0.438 0.267-0.024 0.498-0.056 0.514-0.072s-0.006-0.227-0.049-0.468c-0.228-1.269-0.092-2.289 0.472-3.222 0.311-0.514 0.561-1.187 1.261-0.929 0.681 0.25 0.69 0.519 0.685 0.886-0.017 0.226-0.076 0.324-0.304 0.663-0.361 0.536-0.48 0.9-0.491 1.489-0.004 0.255 0.008 0.48 0.027 0.5s0.222-0.157 0.45-0.392c0.488-0.503 0.873-0.787 1.389-1.026 0.519-0.24 0.871-0.323 1.501-0.351 1.273-0.057 2.202 0.34 3.198 1.364 0.274 0.282 0.527 0.513 0.563 0.514 0.203 0.006 0.809 0.144 1.254 0.288 0.405 0.131 0.52 0.153 0.549 0.107 0.020-0.032 0.098-0.251 0.171-0.486 0.158-0.504 0.42-1.060 0.684-1.452 0.388-0.576 1.153-1.262 1.736-1.558 0.262-0.133 0.772-0.135 0.983-0.004 0.319 0.197 0.484 0.833 0.307 1.182-0.122 0.24-0.203 0.306-0.625 0.505-0.57 0.269-0.972 0.709-1.308 1.432-0.191 0.411-0.171 0.417 0.476 0.148 0.514-0.214 0.905-0.267 1.776-0.244 0.661 0.019 0.754 0.031 1.114 0.157 1.139 0.399 2.041 1.301 2.432 2.434 0.117 0.339 0.139 0.476 0.158 1 0.026 0.726-0.034 1.229-0.221 1.856-0.076 0.254-0.16 0.537-0.188 0.63-0.049 0.164-0.044 0.174 0.137 0.36 0.221 0.226 0.326 0.456 0.326 0.712 0 0.103-0.072 0.564-0.159 1.025-0.448 2.361-1.455 8.393-1.472 8.815l-0.011 0.294 0.54 0.166c0.297 0.091 0.669 0.221 0.827 0.289s0.31 0.114 0.339 0.103c0.029-0.011 0.089-0.139 0.134-0.284 0.274-0.885 0.617-1.456 1.228-2.044 0.742-0.715 1.566-1.149 2.113-1.114 0.216 0.013 0.313 0.045 0.44 0.142 0.334 0.255 0.44 0.721 0.243 1.072-0.105 0.187-0.255 0.297-0.676 0.496-0.376 0.178-0.79 0.47-1.055 0.745-0.217 0.224-0.625 0.913-0.592 0.999 0.007 0.021 0.257-0.060 0.554-0.18 0.676-0.273 1.027-0.33 1.845-0.3 0.687 0.026 1.025 0.105 1.53 0.359 0.389 0.195 0.633 0.371 0.984 0.706 0.53 0.506 0.853 1.023 1.070 1.715 0.093 0.295 0.105 0.425 0.105 1.078 0 0.448-0.025 0.868-0.062 1.058-0.166 0.843-0.669 2.005-1.268 2.925-0.177 0.272-0.696 0.995-1.153 1.606-0.944 1.262-0.906 1.231-1.67 1.385-0.707 0.143-1.318 0.162-2.182 0.069-0.631-0.068-0.798-0.072-1.097-0.025-0.366 0.057-1.725 0.105-1.883 0.066zM22.648 30.207c0.231-0.024 0.579-0.085 0.773-0.134 0.487-0.124 0.732-0.116 1.035 0.034 0.235 0.116 0.279 0.122 0.86 0.118 0.787-0.006 0.904-0.030 1.131-0.233 0.276-0.248 1.034-1.213 1.464-1.866 0.885-1.341 1.268-2.408 1.214-3.381-0.039-0.69-0.316-1.22-0.843-1.617-0.396-0.298-0.694-0.398-1.264-0.424-0.884-0.041-1.241 0.143-1.962 1.012-0.468 0.564-0.66 0.69-1.097 0.721-0.597 0.043-0.848-0.099-1.384-0.781-0.573-0.73-1.030-0.975-1.808-0.973-1.116 0.004-2.083 0.816-2.217 1.862-0.127 0.994 0.258 2.132 1.197 3.537 0.523 0.782 0.848 1.192 1.332 1.681 0.495 0.499 0.642 0.541 1.57 0.443zM17.81 29.679c0.039-0.217 0.096-0.541 0.125-0.721l0.054-0.327-0.319-0.663c-0.379-0.787-0.59-1.327-0.734-1.878-0.091-0.349-0.106-0.51-0.105-1.17 0.001-0.594 0.019-0.83 0.081-1.055 0.257-0.927 0.868-1.739 1.723-2.289 0.742-0.478 0.666-0.383 0.773-0.96 0.106-0.571 0.727-4.299 0.727-4.363 0-0.104-0.135-0.002-0.682 0.51-0.845 0.792-1.242 1.116-1.915 1.564-2.491 1.657-5.459 2.292-8.18 1.75-1.642-0.327-3.335-1.12-4.659-2.182-0.21-0.168-0.734-0.651-1.165-1.073s-0.791-0.744-0.801-0.716c-0.023 0.066 0.297 1.953 1.61 9.511 0.586 3.375 0.757 4.288 0.811 4.343 0.047 0.047 3.374 0.083 9.384 0.102l3.201 0.009zM11.855 18.509c0.953-0.047 1.426-0.135 2.34-0.434 1.106-0.363 2.35-1.051 3.232-1.788 0.774-0.647 1.589-1.576 2.089-2.381 0.37-0.596 0.946-1.797 1.090-2.271l0.031-0.102-7.53 0.009c-8.579 0.009-10.58 0.032-10.663 0.115-0.085 0.085 0.043 0.436 0.479 1.304 0.622 1.241 1.171 2.013 2.054 2.889 1.25 1.241 2.84 2.124 4.538 2.521 0.738 0.172 1.149 0.197 2.341 0.138zM20.659 9.321c0.361-0.902 0.482-1.627 0.38-2.282-0.068-0.439-0.233-0.761-0.555-1.086-0.471-0.475-1.155-0.719-1.834-0.653-0.744 0.072-1.111 0.299-1.547 0.959-0.491 0.741-0.701 0.886-1.288 0.887-0.337 0-0.408-0.015-0.594-0.124-0.116-0.068-0.309-0.24-0.428-0.381-0.493-0.586-1.019-1.092-1.135-1.092-0.015 0-0.028 0.613-0.028 1.361 0.001 1.053-0.017 1.485-0.077 1.909-0.043 0.301-0.078 0.64-0.078 0.753v0.205l1.316 0.013c0.724 0.007 2.297 0.013 3.496 0.011l2.18-0.001 0.192-0.48zM11.503 9.705c0.159-0.024 0.168-0.035 0.213-0.258 0.064-0.322 0.126-0.757 0.162-1.146 0.049-0.529 0.036-2.077-0.021-2.394-0.207-1.156-0.791-1.972-1.618-2.256-0.765-0.263-1.709-0.070-2.332 0.479-0.333 0.293-0.521 0.697-0.67 1.44-0.131 0.652-0.213 0.848-0.459 1.095-0.266 0.266-0.468 0.345-0.885 0.344-0.336-0-0.394-0.015-0.878-0.233-0.292-0.132-0.639-0.252-0.796-0.277-0.905-0.144-1.886 0.411-2.336 1.322-0.164 0.332-0.176 0.382-0.191 0.835-0.017 0.496 0.064 0.94 0.185 1.019 0.031 0.020 0.39 0.048 0.798 0.063 0.887 0.032 8.59 0.004 8.829-0.031z">
      </path>
    </symbol>

    <symbol id="icon-cow" viewBox="0 0 21 32">
      <path fill="none" stroke="#ffa5ba" style="stroke: var(--color1, #ffa5ba)" stroke-linejoin="miter"
        stroke-linecap="butt" stroke-miterlimit="22.9256" stroke-width="0.4177"
        d="M5.343 5.872l-1.65 1.131c-0.691 0.475-1.73 0.401-2.308-0.166-0.579-0.564-0.49-1.412 0.202-1.887l1.902-1.306">
      </path>
      <path fill="#ffa5ba" style="fill: var(--color1, #ffa5ba)"
        d="M9.59 11.531c-0.697-0.164-1.294-0.606-1.589-1.177-0.152-0.293-0.197-0.569-0.228-1.398l-0.039-1.033-0.543-0.195c-0.299-0.107-0.846-0.357-1.216-0.554l-0.673-0.36-0.806 0.539c-1.167 0.781-1.919 0.896-2.943 0.452-0.814-0.353-1.278-1.034-1.272-1.867 0.005-0.756 0.313-1.192 1.361-1.928 0.463-0.325 0.835-0.648 0.827-0.717s-0.097-0.441-0.199-0.826c-0.128-0.484-0.185-0.971-0.185-1.573v-0.872h16.236l-0.042 0.952c-0.026 0.595-0.118 1.228-0.244 1.687-0.111 0.404-0.187 0.747-0.168 0.762s0.359 0.253 0.757 0.53c1.191 0.828 1.504 1.316 1.428 2.23-0.073 0.879-0.797 1.604-1.812 1.815-0.832 0.173-1.558-0.042-2.558-0.756-0.308-0.22-0.586-0.399-0.619-0.399s-0.455 0.198-0.939 0.44-1.038 0.488-1.231 0.546l-0.352 0.106v1.015c0 0.936-0.019 1.049-0.24 1.457-0.281 0.517-0.764 0.879-1.439 1.079-0.525 0.156-0.764 0.164-1.269 0.045zM10.82 9.903c0.205-0.134 0.212-0.175 0.213-1.267 0-0.62 0.026-1.337 0.057-1.593l0.056-0.465h0.371c0.433 0 1.455-0.33 2.087-0.674 0.262-0.143 0.591-0.433 0.807-0.714 0.201-0.26 0.383-0.473 0.405-0.473s0.326 0.232 0.676 0.516c1.062 0.862 1.733 1.277 2.133 1.317 0.699 0.071 1.2-0.497 0.795-0.902-0.079-0.079-0.718-0.521-1.418-0.982l-1.274-0.838 0.368-0.583c0.409-0.648 0.598-1.108 0.603-1.474l0.003-0.244h-13.126l0.062 0.288c0.114 0.53 0.308 1.025 0.616 1.571l0.306 0.541-0.408 0.24c-1.053 0.62-2.27 1.483-2.356 1.672-0.186 0.407 0.47 0.83 1.080 0.696 0.143-0.031 0.793-0.426 1.446-0.877l1.186-0.82 0.322 0.37c0.556 0.639 2.182 1.369 3.049 1.369h0.383v1.468c0 0.88 0.038 1.539 0.096 1.646 0.218 0.408 0.993 0.519 1.464 0.21z">
      </path>
      <path fill="#ffa5ba" style="fill: var(--color1, #ffa5ba)"
        d="M9.77 11.604c-0.211-0.030-0.515-0.125-0.734-0.229-0.596-0.282-1.005-0.734-1.195-1.319l-0.061-0.188-0.014-0.947c-0.009-0.521-0.020-0.952-0.027-0.959s-0.17-0.066-0.364-0.131c-0.614-0.208-1.278-0.52-1.784-0.838-0.13-0.082-0.248-0.148-0.262-0.148s-0.318 0.199-0.675 0.443c-0.843 0.575-1.050 0.678-1.539 0.762-0.972 0.167-1.982-0.206-2.507-0.925l-0.063-0.086v-2.127l0.092-0.12c0.168-0.218 0.405-0.412 0.994-0.815 0.321-0.219 0.643-0.455 0.717-0.523l0.133-0.124-0.115-0.363c-0.263-0.825-0.337-1.334-0.337-2.312 0-0.531 0.003-0.606 0.035-0.618 0.019-0.007 3.687-0.014 8.151-0.014h8.116v0.517c0 1.015-0.097 1.675-0.365 2.472-0.055 0.164-0.1 0.318-0.099 0.343 0.001 0.034 0.173 0.162 0.7 0.521 0.784 0.534 0.927 0.648 1.118 0.886 0.509 0.636 0.575 1.475 0.172 2.185-0.182 0.321-0.587 0.691-0.961 0.877-0.576 0.288-1.402 0.342-2.038 0.134-0.295-0.097-0.504-0.216-1.152-0.66-0.341-0.234-0.632-0.432-0.647-0.441-0.032-0.019-0.093 0.011-0.427 0.213-0.514 0.31-1.127 0.587-1.754 0.792l-0.281 0.092-0.009 0.934c-0.009 0.888-0.011 0.943-0.058 1.11-0.276 0.973-1.247 1.639-2.373 1.627-0.14-0.001-0.315-0.011-0.388-0.022zM10.547 10.013c0.192-0.067 0.351-0.182 0.424-0.305l0.062-0.106 0.014-3.019 0.358-0.011c0.312-0.009 0.391-0.019 0.613-0.079 0.519-0.14 1.057-0.348 1.484-0.574 0.464-0.246 0.484-0.263 0.906-0.784 0.211-0.261 0.393-0.474 0.403-0.474s0.27 0.204 0.576 0.454c0.505 0.412 1.584 1.188 1.818 1.309 0.383 0.197 0.982 0.114 1.231-0.169 0.16-0.182 0.165-0.374 0.014-0.541-0.103-0.114-1.307-0.938-2.118-1.45l-0.658-0.415 0.059-0.093c0.643-1.013 0.74-1.179 0.804-1.387 0.059-0.192 0.126-0.474 0.164-0.693l0.014-0.083h-13.070v0.056c0 0.174 0.199 0.892 0.319 1.151 0.040 0.086 0.199 0.373 0.353 0.637s0.281 0.489 0.281 0.498c0 0.009-0.274 0.176-0.609 0.371-0.531 0.309-1.573 0.996-1.981 1.307-0.267 0.204-0.295 0.449-0.076 0.664 0.178 0.175 0.48 0.269 0.795 0.249 0.206-0.014 0.326-0.052 0.509-0.165 0.147-0.090 0.888-0.597 1.506-1.030 0.219-0.154 0.485-0.34 0.591-0.414l0.192-0.135 0.193 0.268c0.215 0.299 0.338 0.405 0.779 0.67 0.606 0.364 1.265 0.633 1.955 0.8 0.193 0.047 0.286 0.056 0.548 0.056l0.316 0v1.499c0 1.47 0.001 1.501 0.046 1.594 0.159 0.328 0.743 0.497 1.185 0.342z">
      </path>
      <path fill="#ffa5ba" style="fill: var(--color1, #ffa5ba)"
        d="M2.284 25.997c-0.007-0.027-0.4-2.241-0.875-4.92l-0.864-4.87v-3.667l0.112-0.024c0.079-0.018 2.889-0.024 9.652-0.024 10.596 0 9.685-0.014 9.924 0.149 0.197 0.135 0.335 0.39 0.335 0.619 0 0.053-0.014 0.164-0.033 0.246-0.034 0.15-2.226 12.481-2.226 12.52 0 0.012-0.314 0.021-0.799 0.021-0.75 0-0.798-0.002-0.787-0.039 0.025-0.083 1.41-7.921 1.403-7.941-0.003-0.012-0.080 0.067-0.17 0.175-0.271 0.327-1.071 1.107-1.419 1.385-1.564 1.249-3.242 1.951-5.216 2.182-0.466 0.055-1.572 0.055-2.038 0.001-2.058-0.239-3.804-0.995-5.426-2.351-0.33-0.276-0.881-0.825-1.172-1.169-0.121-0.143-0.222-0.257-0.225-0.254s0.313 1.794 0.701 3.981 0.707 3.988 0.707 4.003c0 0.022-0.171 0.028-0.785 0.028h-0.786l-0.011-0.050zM11.173 20.254c2.488-0.258 4.756-1.664 6.215-3.852 0.138-0.207 0.299-0.461 0.357-0.565 0.264-0.469 0.571-1.15 0.732-1.622l0.051-0.15h-8.227c-4.525 0-8.227 0.005-8.227 0.012s0.046 0.137 0.101 0.29c0.459 1.266 1.165 2.392 2.097 3.345 0.192 0.196 0.459 0.45 0.593 0.564 1.444 1.225 3.195 1.925 5.060 2.022 0.264 0.014 0.915-0.009 1.248-0.043z">
      </path>
      <path fill="#ffa5ba" style="fill: var(--color1, #ffa5ba)"
        d="M3.371 31.743c-0.029-0.047-0.271-1.312-0.539-2.813s-0.99-5.539-1.605-8.974c-0.615-3.435-1.119-6.422-1.119-6.638-0-0.317 0.046-0.431 0.241-0.599l0.241-0.207 19.583 0.047 0.169 0.209c0.093 0.115 0.169 0.325 0.169 0.467s-0.52 3.177-1.156 6.746c-0.636 3.568-1.361 7.644-1.61 9.057s-0.492 2.619-0.538 2.68c-0.105 0.139-13.751 0.164-13.837 0.026zM16.030 30.078c0.028-0.134 0.229-1.26 0.448-2.503s0.678-3.843 1.020-5.778c0.342-1.936 0.623-3.568 0.623-3.627s-0.389 0.272-0.864 0.736c-0.475 0.464-1.118 1.015-1.429 1.224-0.823 0.554-2.096 1.131-3.087 1.399-0.789 0.214-1.008 0.235-2.461 0.232-1.354-0.002-1.7-0.031-2.29-0.194-1.85-0.509-3.237-1.292-4.607-2.603-0.493-0.472-0.904-0.851-0.913-0.842s0.22 1.352 0.509 2.984c0.85 4.808 1.327 7.52 1.475 8.394l0.139 0.82h11.387zM11.964 20.143c2.162-0.446 4.184-1.85 5.484-3.808 0.447-0.674 1.023-1.887 1.025-2.16 0.001-0.147-0.448-0.155-8.194-0.155-5.759 0-8.195 0.028-8.195 0.095 0 0.251 0.61 1.512 1.073 2.217 1.353 2.061 3.502 3.499 5.807 3.886 0.788 0.132 2.163 0.098 3-0.075z">
      </path>
      <path fill="#ffa5ba" style="fill: var(--color1, #ffa5ba)"
        d="M3.334 31.629c-0.041-0.11-0.638-3.349-1.326-7.198-2.19-12.252-2.053-11.315-1.703-11.688l0.215-0.229h19.625l0.184 0.233c0.101 0.128 0.184 0.362 0.184 0.519 0 0.265-0.736 4.525-2.035 11.784-0.856 4.782-1.162 6.456-1.21 6.623-0.042 0.146-0.45 0.155-6.952 0.155h-6.907zM15.994 30.248c0-0.041 0.138-0.848 0.306-1.794s0.627-3.554 1.020-5.795c0.393-2.241 0.736-4.17 0.762-4.285 0.036-0.161-0.138-0.039-0.75 0.521-1.092 1.001-1.661 1.412-2.61 1.883-1.519 0.754-2.723 1.035-4.453 1.038-2.665 0.005-4.872-0.908-6.912-2.859-0.456-0.436-0.829-0.736-0.829-0.666s0.161 1.041 0.357 2.159c0.197 1.118 0.656 3.747 1.021 5.842s0.681 3.859 0.703 3.92c0.031 0.087 1.254 0.111 5.712 0.111 3.12 0 5.673-0.033 5.673-0.074zM12.285 20.039c2.386-0.563 4.7-2.516 5.782-4.88 0.496-1.083 0.503-1.028-0.143-1.074-0.635-0.046-12.996-0.043-14.705 0.004l-1.124 0.031 0.118 0.334c0.609 1.725 2.227 3.685 3.842 4.652 0.808 0.484 2.158 0.978 3.028 1.109 0.79 0.119 2.309 0.036 3.201-0.174z">
      </path>
      <path fill="#ffa5ba" style="fill: var(--color1, #ffa5ba)"
        d="M3.36 31.812c-0.029-0.035-0.223-0.997-0.43-2.139-1.068-5.869-2.245-12.482-2.615-14.688-0.328-1.956-0.328-1.964 0.007-2.304l0.208-0.211h19.588l0.136 0.144c0.151 0.16 0.226 0.289 0.284 0.489 0.040 0.139-0.071 0.826-0.849 5.259-0.659 3.753-2.064 11.606-2.327 13-0.041 0.219-0.097 0.418-0.123 0.444-0.033 0.031-2.242 0.050-6.937 0.058-5.936 0.011-6.896 0.003-6.941-0.051zM15.941 30.233c0.012-0.012 0.483-2.643 1.048-5.847s1.037-5.87 1.050-5.925c0.049-0.202 0.076-0.223-1.248 0.945-0.693 0.611-1.346 1.043-2.193 1.452-1.366 0.66-2.374 0.915-3.895 0.986-1.026 0.048-2.108-0.073-3.078-0.344-1.605-0.449-2.914-1.227-4.387-2.605-0.291-0.272-0.567-0.515-0.613-0.54-0.076-0.041-0.082-0.033-0.059 0.080 0.014 0.069 0.067 0.375 0.117 0.679 0.112 0.677 0.871 5.018 1.444 8.262 0.232 1.316 0.434 2.462 0.447 2.547 0.043 0.272 0.079 0.304 0.356 0.323 0.378 0.025 10.986 0.014 11.011-0.012zM11.869 20.094c1.913-0.342 3.789-1.532 5.145-3.263 0.386-0.493 0.697-1.005 1.020-1.682 0.337-0.706 0.403-0.897 0.332-0.968-0.080-0.080-1.983-0.109-7.223-0.109-5.042-0.001-8.921 0.039-8.973 0.090-0.045 0.045 0.214 0.686 0.497 1.225 0.64 1.223 1.721 2.489 2.819 3.299 0.86 0.635 2.126 1.186 3.317 1.444 0.366 0.079 0.537 0.088 1.477 0.073 0.834-0.012 1.177-0.037 1.59-0.111z">
      </path>
      <path fill="#ffa5ba" style="fill: var(--color1, #ffa5ba)"
        d="M3.357 31.819c-0.053-0.064-0.231-0.985-0.783-4.044-1.214-6.731-2.093-11.698-2.37-13.4-0.208-1.278-0.203-1.368 0.111-1.686l0.215-0.219h19.631l0.158 0.21c0.248 0.329 0.273 0.455 0.191 0.968-0.109 0.679-0.652 3.815-1.039 5.998-1.773 9.996-2.156 12.085-2.23 12.159-0.088 0.088-13.812 0.101-13.884 0.014zM15.929 30.21c0.018-0.011 0.041-0.094 0.054-0.186s0.345-1.981 0.738-4.198 0.843-4.759 1.001-5.648c0.157-0.889 0.297-1.663 0.31-1.719 0.020-0.087 0.012-0.096-0.055-0.059-0.043 0.024-0.328 0.265-0.633 0.537-1.104 0.985-1.625 1.363-2.493 1.81-1.601 0.823-3.075 1.155-4.882 1.099-1.554-0.048-2.757-0.348-4.075-1.018-0.934-0.474-1.682-1.022-2.808-2.057-0.45-0.413-0.542-0.474-0.51-0.332 0.011 0.043 0.148 0.835 0.307 1.761 0.885 5.149 1.713 9.804 1.763 9.901l0.056 0.111 1.172 0.022c1.337 0.025 10.010 0.005 10.056-0.023zM10.843 20.178c1.207-0.064 1.938-0.249 2.98-0.753 0.943-0.456 1.702-1.017 2.526-1.867 0.773-0.797 1.155-1.352 1.687-2.448 0.187-0.386 0.297-0.668 0.3-0.772l0.005-0.163-0.354-0.034c-0.458-0.044-13.773-0.053-14.92-0.011-1 0.037-0.945 0.004-0.757 0.468 0.61 1.509 1.923 3.174 3.254 4.128 0.732 0.524 1.934 1.065 2.938 1.322 0.684 0.175 1.074 0.196 2.341 0.129z">
      </path>
      <path fill="#ffa5ba" style="fill: var(--color1, #ffa5ba)"
        d="M3.357 31.817c-0.077-0.094-0.31-1.339-1.556-8.295-0.989-5.522-1.568-8.845-1.706-9.79-0.083-0.57-0.050-0.747 0.193-1.038l0.188-0.224h19.7l0.157 0.206c0.284 0.371 0.285 0.407 0.071 1.668-0.519 3.061-2.555 14.506-2.932 16.486-0.097 0.511-0.198 0.954-0.224 0.986-0.069 0.083-13.824 0.084-13.892 0.002zM15.77 30.197l0.175-0.031 0.587-3.322c0.323-1.827 0.789-4.455 1.035-5.84s0.44-2.539 0.431-2.566c-0.009-0.026-0.264 0.17-0.566 0.436-1.303 1.146-1.805 1.503-2.767 1.969-1.459 0.708-2.455 0.956-4.034 1.004-2.859 0.088-4.986-0.747-7.348-2.883-0.592-0.536-0.689-0.608-0.689-0.517 0 0.082 1.355 7.843 1.798 10.302 0.266 1.476 0.253 1.43 0.428 1.452 0.256 0.032 10.769 0.028 10.95-0.003zM11.355 20.131c1.159-0.127 2.187-0.49 3.241-1.145 1.078-0.67 2.258-1.841 2.882-2.861 0.228-0.372 0.667-1.241 0.785-1.554 0.152-0.401 0.156-0.399-0.856-0.433-1.12-0.037-13.195-0.031-14.292 0.009-0.503 0.018-0.848 0.048-0.877 0.078-0.101 0.101 0.402 1.143 0.95 1.967 0.705 1.059 1.649 2.036 2.552 2.639 0.763 0.51 2.137 1.088 3.032 1.276 0.379 0.080 1.947 0.095 2.582 0.025z">
      </path>
      <path fill="#ffa5ba" style="fill: var(--color1, #ffa5ba)"
        d="M9.593 11.559c-0.592-0.128-1.173-0.507-1.476-0.963-0.287-0.432-0.34-0.676-0.346-1.591-0.003-0.445-0.018-0.867-0.033-0.936-0.025-0.114-0.071-0.142-0.449-0.276-0.403-0.143-1.349-0.594-1.774-0.845l-0.201-0.119-0.618 0.424c-0.34 0.233-0.742 0.487-0.894 0.564-0.964 0.489-2.31 0.269-3.007-0.492-0.498-0.543-0.669-1.239-0.466-1.892 0.177-0.569 0.435-0.855 1.334-1.477 0.305-0.211 0.613-0.432 0.686-0.492 0.13-0.107 0.131-0.113 0.076-0.302-0.311-1.069-0.428-1.862-0.4-2.696l0.014-0.421 16.279-0.021v0.596c0 0.771-0.095 1.481-0.288 2.152-0.085 0.296-0.154 0.561-0.154 0.589s0.322 0.271 0.715 0.539c0.994 0.678 1.223 0.917 1.417 1.479 0.122 0.352 0.117 0.882-0.011 1.226-0.351 0.947-1.336 1.534-2.454 1.464-0.661-0.041-0.934-0.158-1.882-0.806-0.336-0.23-0.623-0.418-0.637-0.418s-0.2 0.103-0.412 0.229c-0.498 0.294-0.94 0.499-1.521 0.704l-0.465 0.165-0.027 0.968c-0.023 0.826-0.040 1.003-0.117 1.201-0.145 0.373-0.3 0.604-0.573 0.854-0.591 0.541-1.491 0.772-2.316 0.594zM10.69 9.95c0.348-0.178 0.341-0.141 0.356-1.847l0.014-1.513 0.43-0.023c0.511-0.027 1.127-0.215 1.852-0.565 0.53-0.256 0.687-0.385 1.13-0.933 0.176-0.218 0.329-0.396 0.34-0.396s0.292 0.217 0.624 0.482c0.769 0.614 1.637 1.218 1.889 1.314 0.705 0.269 1.56-0.332 1.103-0.776-0.158-0.153-1.195-0.864-2.034-1.395-0.341-0.216-0.638-0.408-0.659-0.427s0.135-0.316 0.352-0.665c0.386-0.622 0.562-1.047 0.603-1.46l0.016-0.153-13.058-0.021 0.028 0.242c0.047 0.404 0.264 0.966 0.601 1.556 0.176 0.308 0.303 0.575 0.283 0.592s-0.326 0.202-0.679 0.411c-0.737 0.435-1.835 1.18-1.982 1.344-0.425 0.476 0.49 1.038 1.181 0.725 0.156-0.071 1.778-1.165 2.318-1.563 0.067-0.049 0.128-0.081 0.136-0.070s0.108 0.142 0.222 0.292c0.511 0.675 2.262 1.476 3.226 1.476h0.34l0.005 1.53c0.004 1.124 0.019 1.554 0.059 1.619 0.062 0.102 0.287 0.251 0.465 0.308 0.197 0.063 0.637 0.019 0.842-0.086z">
      </path>
      <path fill="#ffa5ba" style="fill: var(--color1, #ffa5ba)"
        d="M9.726 11.598c-0.746-0.125-1.463-0.639-1.773-1.271l-0.15-0.305-0.036-0.98c-0.020-0.539-0.045-1.003-0.054-1.031s-0.214-0.126-0.453-0.218c-0.598-0.23-1.166-0.498-1.583-0.745l-0.351-0.208-0.703 0.473c-0.722 0.486-1.053 0.652-1.456 0.728-0.566 0.107-1.308 0.001-1.781-0.254-0.383-0.207-0.763-0.598-0.951-0.978-0.161-0.327-0.166-0.349-0.166-0.825 0-0.472 0.006-0.502 0.16-0.822 0.205-0.424 0.427-0.643 1.235-1.217 0.353-0.251 0.676-0.494 0.718-0.541 0.072-0.080 0.070-0.106-0.036-0.482-0.226-0.804-0.287-1.208-0.314-2.069l-0.026-0.831h16.314v0.639c0 0.892-0.059 1.31-0.316 2.24l-0.128 0.464 0.1 0.078c0.055 0.043 0.38 0.272 0.721 0.51 0.739 0.515 1.031 0.798 1.213 1.173 0.714 1.47-0.551 3.049-2.36 2.947-0.617-0.035-0.898-0.15-1.771-0.725l-0.756-0.498-0.267 0.156c-0.419 0.244-1.295 0.656-1.685 0.792-0.195 0.068-0.379 0.154-0.41 0.192-0.039 0.048-0.055 0.281-0.056 0.802-0.001 1.236-0.104 1.577-0.638 2.108-0.358 0.356-0.737 0.564-1.209 0.664-0.282 0.060-0.781 0.077-1.032 0.035zM10.567 9.979c0.236-0.073 0.346-0.161 0.393-0.315 0.039-0.126 0.091-1.624 0.093-2.676l0.001-0.41 0.188-0.001c0.538-0.002 1.26-0.198 1.98-0.535 0.593-0.278 0.767-0.412 1.178-0.907 0.211-0.254 0.397-0.462 0.413-0.462s0.298 0.213 0.627 0.471c0.75 0.59 1.465 1.099 1.739 1.239 0.292 0.148 0.543 0.175 0.841 0.089 0.465-0.135 0.663-0.524 0.395-0.774-0.161-0.15-1.157-0.833-1.994-1.368-0.357-0.228-0.667-0.433-0.689-0.454-0.024-0.023 0.116-0.3 0.34-0.673 0.376-0.628 0.541-1.014 0.592-1.382l0.026-0.19-6.499-0.032c-3.575-0.018-6.51-0.021-6.523-0.009-0.037 0.037 0.074 0.547 0.193 0.89 0.059 0.171 0.247 0.564 0.417 0.874s0.309 0.573 0.309 0.584c0 0.011-0.274 0.184-0.609 0.385-0.811 0.485-1.757 1.127-1.992 1.35-0.232 0.221-0.244 0.352-0.053 0.57 0.092 0.104 0.212 0.178 0.362 0.223 0.267 0.079 0.393 0.083 0.626 0.018 0.146-0.040 1.119-0.671 2.324-1.506l0.282-0.196 0.094 0.133c0.552 0.783 2.137 1.576 3.292 1.648l0.406 0.025 0.014 1.54c0.014 1.466 0.019 1.544 0.103 1.637 0.252 0.278 0.665 0.355 1.13 0.212z">
      </path>
      <path fill="#ffa5ba" style="fill: var(--color1, #ffa5ba)"
        d="M3.353 31.814c-0.081-0.098-0.253-1.004-1.331-7.007-1.151-6.409-1.805-10.164-1.954-11.21-0.064-0.452-0.017-0.645 0.227-0.921l0.181-0.206 19.727 0 0.142 0.21c0.208 0.309 0.246 0.44 0.213 0.738-0.026 0.237-0.452 2.74-0.842 4.944-1.142 6.467-2.214 12.428-2.351 13.081-0.036 0.172-0.088 0.339-0.114 0.371-0.040 0.048-1.276 0.059-6.948 0.059s-6.908-0.011-6.948-0.059zM15.916 30.171c0.014-0.014 0.17-0.848 0.347-1.853s0.593-3.363 0.925-5.239 0.643-3.65 0.692-3.943c0.049-0.292 0.096-0.566 0.105-0.609s0.003-0.077-0.012-0.077-0.365 0.289-0.776 0.642c-1.166 1.002-1.539 1.263-2.465 1.728-1.429 0.717-2.493 0.984-4.098 1.028-1.386 0.038-2.3-0.083-3.424-0.455-1.5-0.497-2.436-1.090-4.214-2.67-0.201-0.178-0.373-0.317-0.382-0.307-0.018 0.018 0.012 0.197 0.538 3.223 0.991 5.71 1.469 8.355 1.528 8.467 0.038 0.072 0.122 0.082 0.74 0.097 1.051 0.025 10.469-0.003 10.497-0.033zM11.753 20.068c1.325-0.221 2.558-0.793 3.71-1.721 0.453-0.365 1.297-1.236 1.636-1.688 0.476-0.635 1.221-2.061 1.221-2.337 0-0.113-0.014-0.12-0.299-0.155-0.412-0.051-15.159-0.038-15.493 0.014-0.263 0.040-0.266 0.042-0.259 0.183 0.009 0.193 0.474 1.123 0.847 1.694 0.648 0.992 1.652 2.069 2.462 2.644 0.904 0.641 2.565 1.323 3.485 1.432 0.488 0.058 2.205 0.016 2.692-0.065z">
      </path>
    </symbol>

    <symbol id="icon-heart" viewBox="0 0 30 32">
      <path fill="#ffa5ba" style="fill: var(--color1, #ffa5ba)"
        d="M13.484 31.945l-1.387-0.033-0.036-0.596c-0.020-0.328-0.043-1.612-0.052-2.854-0.020-2.881-0.104-4.663-0.228-4.819-0.054-0.067-0.675-0.534-1.382-1.038-3.681-2.623-6.405-5.268-8.124-7.89-0.674-1.028-1.512-2.755-1.83-3.771-0.356-1.136-0.425-1.813-0.393-3.81l0.030-1.832 0.329-0.688c1.024-2.145 2.561-3.513 4.808-4.281 0.651-0.222 0.844-0.245 2.391-0.279 2.010-0.044 2.582 0.050 3.789 0.625 0.916 0.436 1.358 0.764 2.526 1.876l0.808 0.769 1.046-0.959c2.057-1.887 2.875-2.234 5.443-2.309 1.605-0.047 2.244 0.026 3.264 0.371 1.37 0.464 2.816 1.547 3.679 2.756 0.524 0.734 1.080 1.937 1.236 2.675 0.169 0.798 0.171 3.091 0.002 3.89-0.196 0.929-0.636 2.106-1.164 3.11-0.942 1.792-1.966 3.112-3.971 5.117-1.563 1.563-2.744 2.57-5.114 4.361l-1.563 1.18-0.050 1.078c-0.028 0.593-0.073 2.471-0.102 4.175s-0.060 3.106-0.071 3.117c-0.049 0.049-2.624 0.088-3.882 0.058zM15.358 30.059c0.188-0.119 0.26-5.088 0.075-5.158-0.065-0.024-0.453-0.025-0.862-0l-0.743 0.044 0.052 2.357c0.029 1.296 0.078 2.444 0.11 2.551s0.144 0.211 0.248 0.232c0.367 0.072 0.989 0.058 1.12-0.025zM15.299 22.62c1.956-1.143 5.514-3.882 7.666-5.902l0.654-0.614-0.272-0.485c-0.307-0.547-0.425-1.131-0.504-2.478-0.081-1.379-0.218-2.664-0.319-2.98-0.113-0.355-0.515-0.547-0.839-0.399-0.37 0.169-0.41 0.372-0.615 3.184-0.154 2.114-0.259 2.454-0.951 3.076-1.010 0.908-2.691 0.864-3.65-0.095-0.568-0.568-0.65-0.868-0.799-2.93-0.213-2.944-0.233-3.043-0.656-3.218-0.36-0.149-0.663-0.062-0.796 0.23-0.060 0.131-0.188 1.273-0.285 2.539-0.102 1.331-0.227 2.422-0.297 2.588-0.168 0.402-0.714 0.983-1.182 1.257-0.524 0.307-1.596 0.387-2.182 0.164-0.836-0.319-1.487-0.994-1.647-1.707-0.042-0.186-0.14-1.234-0.218-2.33-0.166-2.335-0.225-2.629-0.554-2.754-0.309-0.118-0.609-0.036-0.765 0.21-0.128 0.2-0.24 1.123-0.41 3.385-0.115 1.524-0.118 1.54-0.54 2.314l-0.343 0.63 0.952 0.88c1.941 1.794 3.158 2.765 5.119 4.084 1.031 0.694 2.679 1.702 2.782 1.702 0.028 0 0.321-0.158 0.652-0.352zM11.465 14.734c0.093-0.050 0.21-0.167 0.26-0.26s0.171-1.198 0.269-2.456c0.202-2.583 0.299-2.929 0.987-3.518 0.611-0.523 0.912-0.628 1.801-0.627 0.902 0.001 1.255 0.136 1.838 0.703 0.657 0.64 0.741 0.995 0.855 3.646 0.088 2.057 0.153 2.317 0.623 2.512 0.148 0.061 0.362 0.088 0.476 0.059 0.388-0.097 0.401-0.173 0.679-3.843 0.049-0.65 0.149-1.319 0.225-1.499 0.213-0.51 0.689-1.029 1.207-1.314 0.429-0.237 0.553-0.262 1.272-0.26 0.643 0.002 0.867 0.039 1.16 0.193 0.482 0.254 1.211 1.063 1.346 1.494 0.059 0.19 0.172 1.342 0.249 2.56s0.157 2.23 0.176 2.25c0.14 0.145 1.013-1.152 1.708-2.537 0.627-1.251 0.869-2.028 0.987-3.167 0.24-2.326-0.214-3.656-1.77-5.178-1.222-1.196-2.142-1.525-4.298-1.537-1.338-0.007-1.867 0.095-2.742 0.534-0.654 0.328-1.115 0.718-2.351 1.988l-1.107 1.138h-0.47c-0.259 0-0.557-0.045-0.664-0.099s-0.712-0.627-1.345-1.271c-1.264-1.286-1.877-1.734-2.82-2.062-0.596-0.207-0.701-0.215-2.312-0.182-1.552 0.032-1.73 0.053-2.22 0.256-1.338 0.554-2.558 1.669-3.161 2.887l-0.381 0.769 0.010 1.689c0.012 1.926 0.114 2.463 0.744 3.885 0.429 0.969 1.24 2.425 1.568 2.815 0.215 0.256 0.239 0.265 0.298 0.107 0.035-0.094 0.109-0.706 0.165-1.361 0.306-3.583 0.306-3.58 0.713-4.143 0.564-0.779 1.461-1.158 2.46-1.041 1.204 0.141 2.018 0.859 2.226 1.964 0.045 0.24 0.148 1.331 0.229 2.425 0.144 1.945 0.236 2.404 0.507 2.513 0.189 0.076 0.426 0.064 0.603-0.031z">
      </path>
    </symbol>

    <symbol id="icon-arrow1" viewBox="0 0 37 32">
      <path
        d="M23.208 31.234l13.327-13.327c0.482-0.482 0.78-1.149 0.78-1.884s-0.298-1.402-0.78-1.884l-13.327-13.327c-0.485-0.502-1.165-0.814-1.917-0.814-1.472 0-2.665 1.193-2.665 2.665 0 0.752 0.312 1.432 0.813 1.917l0.001 0.001 8.777 8.777h-25.551c-1.472 0-2.665 1.193-2.665 2.665s1.193 2.665 2.665 2.665v0h25.551l-8.777 8.777c-0.52 0.52-0.781 1.202-0.781 1.884s0.26 1.365 0.781 1.884c0.482 0.482 1.149 0.78 1.884 0.78s1.402-0.298 1.884-0.78v0z">
      </path>
      <path
        d="M20.538 31.852c-0.707-0.226-1.258-0.714-1.604-1.423-0.181-0.37-0.191-0.424-0.191-1.072 0-1.193-0.388-0.718 4.947-6.065l4.601-4.612-12.811-0c-8.415-0-12.943-0.021-13.197-0.061-1.121-0.176-2.013-1.061-2.207-2.19-0.193-1.126 0.406-2.242 1.491-2.779l0.442-0.219 26.278-0.031-4.572-4.581c-4.185-4.194-4.588-4.615-4.762-4.973-0.368-0.76-0.383-1.532-0.043-2.273 0.209-0.456 0.427-0.725 0.825-1.018 0.921-0.679 2.205-0.677 3.114 0.004 0.55 0.412 13.854 13.776 14.042 14.106 0.346 0.605 0.465 1.317 0.323 1.934-0.171 0.744 0.098 0.453-7.288 7.853-3.803 3.81-7.041 7.009-7.196 7.109-0.615 0.397-1.497 0.514-2.194 0.292z">
      </path>
      <path
        d="M20.731 31.924c-0.667-0.124-1.466-0.783-1.796-1.48-0.182-0.385-0.191-0.436-0.191-1.115 0-1.164-0.354-0.731 4.929-6.021 2.493-2.496 4.532-4.558 4.532-4.582s-5.745-0.044-12.767-0.044c-8.522-0-12.896-0.021-13.153-0.062-1.538-0.245-2.548-1.751-2.163-3.227 0.203-0.78 0.693-1.365 1.468-1.753l0.472-0.236h13.072c7.19 0 13.072-0.019 13.072-0.043s-2.038-2.086-4.53-4.582c-4.148-4.157-4.546-4.572-4.719-4.93-0.395-0.817-0.383-1.64 0.035-2.437 0.638-1.215 2.17-1.71 3.444-1.113 0.381 0.178 0.77 0.557 7.383 7.166 6.913 6.909 6.984 6.982 7.197 7.435 0.397 0.841 0.341 1.778-0.151 2.525-0.309 0.47-13.944 14.077-14.265 14.236-0.541 0.269-1.283 0.374-1.868 0.265z">
      </path>
    </symbol>
  </defs>
</svg>